<?xml version="1.0" standalone="no"?>
<!DOCTYPE svg PUBLIC "-//W3C//DTD SVG 20010904//EN"
 "http://www.w3.org/TR/2001/REC-SVG-20010904/DTD/svg10.dtd">
<svg version="1.0" xmlns="http://www.w3.org/2000/svg"
 width="1024.000000pt" height="1024.000000pt" viewBox="0 0 1024.000000 1024.000000"
 preserveAspectRatio="xMidYMid meet">

<g transform="translate(0.000000,1024.000000) scale(0.100000,-0.100000)"
fill="#000000" stroke="none">
<path d="M4750 9330 c-418 -39 -787 -129 -1214 -297 -753 -294 -1390 -804
-1902 -1519 -297 -415 -523 -902 -659 -1419 -152 -577 -183 -1088 -99 -1634
118 -767 379 -1359 867 -1969 380 -475 746 -787 1267 -1080 868 -487 1850
-658 2820 -492 675 116 1305 381 1810 761 230 173 513 434 697 644 273 312
514 685 676 1046 182 407 296 850 337 1309 13 150 13 524 -1 670 -37 406 -148
864 -310 1275 -65 165 -237 501 -339 663 -120 191 -273 395 -376 502 l-85 88
45 23 c52 26 67 54 39 74 -10 8 -94 55 -188 106 -93 51 -183 102 -200 114 -16
12 -56 32 -87 44 -66 26 -89 47 -64 57 34 13 13 55 -41 83 -19 9 -30 8 -65
-10 l-42 -21 -78 38 c-43 21 -78 40 -78 44 0 3 20 16 45 29 25 13 45 27 45 30
-1 3 -9 16 -20 29 -22 27 -26 26 -133 -23 -78 -35 -103 -56 -93 -80 3 -8 85
-55 183 -103 98 -49 243 -123 323 -166 232 -126 365 -199 370 -203 6 -5 -51
-53 -63 -53 -4 0 -62 20 -130 45 -156 57 -770 277 -949 341 -76 26 -138 51
-138 54 0 3 34 18 75 34 41 16 83 35 92 42 17 13 16 16 -11 38 -33 27 -36 27
-166 -27 -125 -51 -316 -114 -387 -128 -93 -17 -186 -9 -217 20 -34 32 -40 70
-20 122 34 87 98 140 216 182 233 81 900 297 917 297 32 0 34 18 6 44 -48 45
-56 44 -288 -28 -107 -33 -121 -35 -145 -22 -79 40 -328 141 -467 189 -312
107 -612 175 -955 218 -187 23 -657 34 -820 19z m715 -140 c252 -26 527 -80
760 -149 194 -58 169 -38 241 -185 35 -71 61 -133 59 -137 -3 -4 -17 -10 -32
-14 -15 -3 -59 -21 -98 -39 -90 -42 -165 -121 -196 -206 -12 -33 -23 -60 -24
-60 -1 0 -21 27 -44 60 -49 69 -190 216 -271 282 -311 252 -671 377 -1087 378
-515 0 -964 -207 -1291 -595 -154 -183 -250 -353 -321 -572 -92 -280 -106
-635 -35 -918 59 -235 152 -426 300 -620 l23 -31 -154 -142 c-85 -79 -159
-141 -163 -138 -5 3 -12 112 -15 243 -7 276 -2 263 -109 263 l-68 0 -1 108 c0
146 -8 186 -37 190 -21 3 -22 7 -22 117 l0 113 -39 41 c-22 23 -47 41 -55 41
-13 0 -16 12 -16 65 0 59 -2 67 -22 74 -13 5 -29 6 -35 4 -19 -7 -17 51 3 88
8 17 13 33 11 36 -8 8 -207 11 -207 3 0 -4 7 -27 15 -50 20 -58 19 -70 -8 -70
-37 0 -47 -19 -47 -87 0 -53 -3 -63 -17 -63 -10 -1 -37 -18 -60 -39 l-43 -39
0 -116 c0 -105 -2 -116 -18 -116 -37 0 -42 -20 -42 -162 l0 -138 -69 0 c-44 0
-72 -5 -79 -13 -7 -8 -13 -101 -16 -248 -3 -129 -8 -278 -11 -331 l-6 -98 -43
0 c-23 0 -47 -5 -54 -12 -9 -9 -12 -88 -12 -295 l0 -284 -63 34 c-34 19 -79
40 -99 47 l-38 12 54 49 c94 85 106 178 33 250 -37 38 -95 65 -156 75 -38 6
-41 8 -24 18 109 61 153 169 100 247 -32 49 -84 70 -183 77 l-84 5 0 53 c0 47
3 54 20 54 11 0 37 7 59 16 30 12 41 23 46 44 12 54 -29 88 -95 78 l-30 -5 0
187 c0 186 -4 210 -36 210 -7 0 -20 -7 -28 -16 -13 -13 -16 -46 -16 -200 l0
-184 -38 0 c-41 0 -74 -25 -86 -66 -8 -27 12 -44 72 -59 l47 -12 3 -52 3 -51
-76 0 c-46 0 -90 -6 -113 -16 -77 -32 -120 -101 -107 -170 8 -43 65 -108 119
-137 l41 -21 -54 -8 c-155 -24 -240 -144 -178 -251 27 -46 89 -107 110 -108 7
0 -13 -9 -44 -19 -83 -27 -133 -55 -174 -97 l-36 -37 6 40 c3 21 14 110 25
197 91 713 362 1402 772 1965 290 399 636 745 988 991 560 391 1304 666 1980
731 117 11 599 5 735 -10z m-482 -185 c360 -48 658 -194 913 -449 174 -175
295 -369 368 -588 51 -155 54 -153 -80 -49 -66 51 -170 132 -232 181 -75 60
-118 88 -127 83 -7 -5 -35 -33 -62 -63 -26 -30 -79 -84 -118 -120 -38 -35 -77
-76 -86 -90 -17 -27 -47 -55 -53 -49 -1 2 -30 40 -64 84 -81 106 -169 186
-265 240 -37 20 -55 24 -83 19 -36 -7 -36 -19 1 -26 17 -3 16 -6 -12 -21 -39
-21 -49 -22 -33 -2 11 13 8 14 -21 9 -19 -4 -36 -8 -37 -10 -2 -1 22 -15 55
-29 99 -45 218 -146 275 -232 13 -21 37 -64 52 -97 l28 -58 -44 -46 c-23 -26
-45 -49 -48 -52 -110 -119 -405 -426 -588 -612 -130 -132 -148 -147 -171 -141
-32 7 -116 49 -154 75 -24 17 -30 18 -45 6 -15 -11 -16 -11 -5 3 11 13 7 21
-26 47 -39 31 -64 34 -75 7 -3 -8 -13 -11 -25 -8 -12 3 -28 0 -36 -7 -8 -6
-19 -9 -25 -5 -16 10 -12 -1 13 -30 45 -54 63 -71 102 -100 42 -31 57 -41 140
-86 l50 -28 -70 -65 c-81 -75 -61 -80 -202 50 -114 106 -140 124 -174 124 -27
0 -58 -24 -227 -178 -234 -213 -257 -231 -271 -219 -27 22 -133 192 -176 282
-267 560 -198 1190 181 1665 61 78 215 228 299 291 190 145 470 259 722 294
131 17 304 18 436 0z m1693 -164 c46 -22 84 -42 84 -45 0 -2 -24 -12 -52 -22
-29 -9 -58 -19 -65 -21 -10 -4 -73 102 -73 122 0 11 26 3 106 -34z m236 -610
c62 -22 164 -57 227 -79 l114 -40 -29 -15 c-16 -8 -65 -29 -109 -47 -149 -61
-196 -105 -202 -192 -5 -62 17 -106 69 -138 46 -28 105 -25 223 9 182 53 195
63 195 155 l0 61 81 28 80 29 52 -21 c164 -65 429 -154 469 -159 45 -4 52 -9
132 -98 232 -255 466 -620 631 -984 48 -105 125 -293 125 -305 0 -2 -26 23
-58 54 -86 86 -195 117 -311 87 -114 -29 -190 -90 -228 -183 -10 -24 -22 -43
-26 -43 -8 0 -332 228 -527 370 -107 78 -148 108 -331 239 -57 41 -153 111
-214 156 -60 44 -161 117 -223 161 -62 43 -144 102 -181 129 -38 28 -133 97
-212 154 -249 180 -224 155 -236 235 -13 82 -59 224 -110 338 -19 44 -33 81
-31 83 2 2 24 -3 48 -11 73 -26 212 -14 340 29 58 19 110 36 117 36 6 1 62
-17 125 -38z m-1795 -87 c-3 -3 -12 -4 -19 -1 -8 3 -5 6 6 6 11 1 17 -2 13 -5z
m0 -30 c-3 -3 -12 -4 -19 -1 -8 3 -5 6 6 6 11 1 17 -2 13 -5z m2278 -48 l30
-14 -45 -20 c-42 -20 -46 -20 -73 -4 l-28 17 22 17 c25 21 53 22 94 4z m-1455
-82 c108 -87 721 -547 851 -639 210 -147 389 -278 436 -317 28 -24 92 -71 142
-106 51 -35 89 -67 86 -72 -3 -6 0 -8 7 -5 7 3 19 1 27 -4 13 -8 13 -12 0 -27
-13 -16 -12 -17 5 -7 17 9 31 3 85 -34 63 -44 140 -102 151 -113 3 -3 19 -13
35 -22 19 -11 29 -24 27 -35 -2 -15 -1 -15 7 -3 9 12 13 11 33 -7 13 -11 55
-42 93 -69 39 -26 72 -50 75 -54 3 -3 18 -13 33 -23 30 -19 28 -42 -3 -32 -10
3 -21 2 -23 -3 -7 -10 34 -9 51 2 9 5 27 -2 52 -23 21 -17 43 -31 47 -31 5 0
23 -13 40 -29 17 -15 37 -31 45 -34 8 -3 41 -22 73 -44 32 -21 65 -42 74 -48
9 -5 18 -13 21 -16 3 -3 27 -21 54 -40 27 -19 65 -46 85 -61 20 -14 71 -50
113 -79 l78 -53 -32 -13 c-18 -8 -40 -12 -50 -10 -11 3 -15 0 -11 -9 3 -8 -5
-16 -21 -20 -37 -9 -32 -24 7 -18 63 11 241 -52 287 -101 l23 -24 -27 -23
c-15 -13 -42 -35 -59 -51 -39 -34 -62 -41 -84 -27 -16 9 -15 10 7 8 16 -2 24
2 22 10 -1 8 1 11 6 8 4 -3 20 8 35 24 15 16 23 31 18 34 -5 4 -13 1 -16 -4
-4 -6 -18 -16 -33 -21 -21 -8 -30 -6 -51 15 -14 13 -35 26 -46 29 -11 2 -3 4
18 4 20 0 40 3 45 8 4 4 -19 5 -50 3 -31 -3 -55 -1 -52 4 13 20 -17 5 -46 -23
-45 -46 -61 -82 -55 -126 5 -36 4 -39 -40 -66 -68 -43 -100 -104 -100 -192 0
-66 3 -74 38 -124 38 -52 38 -53 20 -74 -10 -12 -21 -24 -24 -27 -4 -3 -16
-24 -28 -47 -33 -65 -29 -156 7 -214 16 -24 38 -52 50 -63 21 -18 21 -19 2
-35 -20 -17 -75 -125 -126 -246 -17 -42 -43 -83 -64 -102 l-35 -33 -5 839 c-3
462 -7 841 -10 844 -16 14 -52 27 -77 27 -23 0 -25 2 -13 11 13 9 13 10 -1 6
-9 -3 -41 -8 -72 -12 l-57 -7 0 86 c0 51 4 86 10 86 6 0 10 8 10 18 0 13 -2
14 -9 4 -6 -10 -10 -10 -21 3 -16 20 -247 22 -273 3 -13 -11 -17 -36 -20 -128
-2 -76 -9 -128 -20 -152 l-16 -38 60 0 59 0 0 115 0 116 68 -3 67 -3 3 -1216
2 -1216 -42 -19 c-24 -10 -53 -30 -65 -44 -12 -14 -25 -21 -29 -17 -5 4 -7
436 -5 959 1 523 -1 1020 -5 1105 l-7 153 -31 -1 c-31 -1 -90 -16 -71 -18 6
-1 11 -111 12 -304 1 -166 4 -355 7 -419 3 -64 2 -119 -2 -122 -8 -5 -8 -109
1 -571 5 -274 4 -301 -12 -317 -16 -16 -19 -16 -51 4 -19 12 -64 32 -100 46
-131 48 -316 111 -362 122 -38 10 -48 17 -49 34 -1 11 -5 211 -8 443 l-6 422
-33 -28 -34 -27 1 -782 c2 -634 -1 -782 -11 -783 -36 -1 -176 -19 -200 -25
l-28 -6 0 706 c0 388 -2 706 -5 706 -16 0 -85 -42 -93 -56 -5 -9 -11 -14 -14
-12 -2 1 -28 -8 -56 -21 -36 -17 -48 -27 -40 -33 19 -12 35 -9 18 3 -11 8 -3
9 32 6 41 -4 46 -2 43 15 -2 10 0 16 6 13 5 -4 9 -15 9 -27 0 -17 -4 -19 -26
-14 -17 5 -33 0 -51 -14 -17 -13 -21 -20 -10 -20 8 0 14 -7 13 -16 -1 -22 41
-26 61 -5 14 13 15 10 8 -28 -5 -32 -4 -42 4 -36 9 5 12 -29 10 -129 -1 -95
-4 -136 -13 -136 -6 0 -33 7 -61 16 -27 8 -70 19 -95 24 -25 5 -67 17 -95 27
-42 15 -46 18 -25 21 45 7 50 18 50 123 0 64 -4 99 -11 99 -6 0 -3 7 6 16 9 9
13 19 9 23 -4 3 -9 0 -11 -7 -3 -6 -10 -9 -15 -6 -7 4 -8 2 -4 -5 5 -8 1 -11
-16 -8 -12 2 -16 2 -8 -1 12 -4 11 -6 -5 -13 -16 -7 -14 -8 10 -6 30 2 30 2
33 -58 2 -33 1 -79 -3 -102 -5 -37 -10 -43 -31 -43 -28 0 -33 16 -6 23 14 4
14 5 -3 6 -11 0 -27 -4 -35 -9 -13 -9 -13 -11 0 -20 13 -8 13 -10 -1 -10 -9 0
-19 9 -22 20 -3 13 -13 20 -29 20 l-23 -1 25 -15 25 -15 -25 6 c-14 3 -37 8
-52 11 -16 4 -28 10 -28 14 0 4 -11 5 -24 3 -14 -3 -49 3 -78 13 -38 13 -47
19 -31 22 14 2 21 10 20 22 -1 11 -6 16 -15 13 -11 -5 -11 -7 0 -15 9 -7 5 -8
-12 -4 -14 3 -33 6 -43 6 -10 0 -16 4 -13 8 3 5 -37 9 -87 11 -139 3 -360 19
-380 26 -9 4 -17 3 -17 -3 0 -5 35 -19 78 -30 42 -11 192 -51 332 -87 243 -64
580 -158 683 -191 44 -15 47 -18 47 -50 0 -19 -3 -34 -6 -34 -3 0 -101 29
-217 65 -291 90 -623 178 -1072 285 -209 49 -443 105 -520 125 -77 19 -160 35
-185 35 -35 0 -42 3 -30 11 12 8 10 10 -10 5 -13 -3 -50 -3 -81 1 -47 5 -56 9
-51 22 5 13 3 13 -12 -2 -15 -15 -29 -16 -99 -11 -45 4 -86 7 -92 8 -17 2 -35
24 -35 44 0 15 -5 18 -25 14 -14 -2 -22 -8 -19 -13 3 -5 -4 -9 -16 -9 -12 0
-19 -4 -16 -9 11 -18 -17 -16 -127 7 -62 13 -133 23 -159 23 -27 -1 -48 3 -48
9 0 5 -19 11 -42 11 -48 2 -34 5 65 14 62 6 85 23 34 26 -12 1 1 7 28 13 l50
13 -70 7 c-38 4 -97 11 -130 16 -33 5 -98 14 -145 20 -47 7 -96 14 -110 17
-14 3 -50 9 -80 13 -30 4 -62 10 -70 13 -8 3 -27 8 -42 11 -24 6 -28 11 -28
41 0 29 4 35 21 35 11 0 18 4 15 9 -3 5 1 12 10 15 13 5 14 9 4 21 -7 8 -19
15 -26 15 -10 0 -13 7 -9 23 4 13 10 55 14 93 5 38 9 61 10 52 0 -10 8 -18 17
-18 10 0 14 -6 11 -14 -4 -10 -1 -13 9 -9 10 4 12 0 8 -11 -4 -12 -2 -15 9
-10 8 3 18 1 22 -5 3 -6 10 -11 14 -11 5 0 -14 23 -42 50 -28 27 -54 50 -59
50 -4 0 -8 -19 -8 -42 0 -24 -5 -50 -10 -58 -7 -11 -9 -7 -5 15 15 105 15 106
-16 151 -33 48 -40 52 -60 28 -9 -11 -12 -49 -10 -139 2 -117 1 -125 -20 -146
-15 -15 -17 -20 -6 -16 9 3 19 2 22 -3 4 -6 0 -10 -7 -10 -8 0 -6 -5 5 -11 28
-16 22 -66 -10 -83 -16 -8 -50 -36 -77 -61 -32 -31 -52 -43 -58 -37 -13 13 40
91 62 93 12 0 12 2 1 6 -11 5 -11 7 0 14 9 6 0 9 -26 9 -22 0 -52 6 -67 14
-23 12 -29 12 -39 0 -7 -8 -18 -13 -26 -10 -8 3 -11 1 -8 -4 3 -5 -2 -18 -12
-28 -10 -11 -72 -76 -138 -145 -66 -69 -126 -132 -133 -141 -11 -13 -36 -16
-150 -16 -75 0 -148 -3 -162 -6 -25 -6 -25 -6 4 20 16 14 35 26 43 26 8 0 13
6 11 14 -6 26 42 56 89 56 31 0 43 4 40 13 -2 6 -16 11 -31 10 -24 -2 -26 0
-15 13 7 9 29 23 48 33 20 9 35 22 34 28 -3 13 16 30 37 35 8 2 19 8 25 13 33
32 368 486 362 491 -7 7 -205 -65 -270 -97 -32 -17 -56 -33 -53 -36 9 -10 -27
-53 -164 -193 -314 -323 -358 -369 -374 -391 l-16 -23 -15 21 c-20 28 -88 93
-97 93 -5 0 -8 5 -8 11 0 8 5 8 15 -1 12 -10 15 -10 15 0 0 14 14 4 16 -11 1
-5 2 -13 3 -18 0 -5 10 -13 22 -16 11 -4 25 -18 31 -31 6 -13 15 -24 19 -24
15 0 -34 73 -52 77 -13 4 -16 13 -13 36 2 21 0 27 -5 18 -5 -7 -14 -10 -20 -6
-9 5 -9 10 0 21 6 7 16 11 22 7 5 -3 7 -1 4 4 -6 10 15 25 37 27 12 1 21 26 9
26 -12 0 -104 -77 -103 -87 1 -4 -3 -9 -7 -10 -14 -5 -46 34 -39 45 3 6 106
95 229 199 284 241 503 432 745 652 107 97 226 205 267 241 40 36 200 182 356
325 155 143 302 277 326 298 l43 39 163 -154 c633 -597 997 -928 1020 -928 12
0 46 42 47 57 0 15 -64 80 -195 197 -158 142 -215 199 -208 209 3 6 1 7 -5 3
-13 -8 -93 64 -85 77 3 6 2 7 -4 4 -6 -4 -18 0 -29 7 -16 12 -17 16 -4 32 14
18 14 18 -3 5 -16 -12 -20 -12 -34 1 -14 15 -14 18 1 39 24 35 449 459 454
454 3 -2 6 -42 8 -87 4 -86 20 -174 36 -195 6 -8 36 17 98 85 49 53 215 225
369 382 206 209 283 282 291 274 6 -6 12 -34 13 -61 1 -36 6 -49 15 -46 7 3
12 -3 12 -15 0 -12 4 -23 9 -26 5 -3 12 -23 16 -43 7 -41 47 -159 70 -210 8
-17 15 -36 15 -42 0 -20 49 -121 59 -121 22 0 41 32 35 58 -9 45 -37 124 -65
187 -7 17 -13 35 -14 42 0 6 -7 19 -16 30 -37 43 -64 132 -43 140 19 7 74 -46
68 -65 -5 -13 -4 -14 4 -3 5 7 15 10 22 6 9 -6 9 -10 -1 -17 -10 -7 -8 -8 7
-4 13 4 27 -1 39 -14 11 -12 13 -20 6 -20 -7 0 -9 -5 -5 -11 5 -8 9 -8 14 1 7
11 41 -13 192 -139 9 -8 14 -19 11 -24 -3 -6 -1 -7 5 -3 6 4 20 -2 30 -12 11
-11 25 -21 31 -23 7 -3 13 -12 15 -21 1 -10 6 -21 11 -25 4 -4 5 -2 1 5 -4 6
-4 12 0 12 7 0 124 -99 162 -137 29 -29 33 -29 62 2 13 14 30 23 36 21 7 -3
17 7 23 22 5 16 10 20 10 10 1 -9 4 -24 8 -34 5 -13 3 -15 -7 -9 -9 6 -11 4
-5 -4 4 -7 15 -11 25 -8 25 6 14 -20 -11 -28 -10 -4 -19 -11 -19 -16 0 -5 -6
-9 -14 -9 -23 0 -26 -24 -26 -181 0 -123 -3 -155 -17 -177 -30 -49 -55 -71
-74 -67 -11 2 -17 0 -14 -6 4 -5 11 -7 16 -4 24 15 3 -9 -72 -81 -45 -44 -85
-78 -91 -76 -5 1 -7 -1 -4 -6 3 -5 -11 -22 -31 -38 -21 -16 -67 -54 -103 -85
-61 -52 -68 -56 -112 -54 -27 1 -48 -2 -48 -7 0 -4 -6 -8 -13 -8 -8 0 -24 -9
-37 -20 -13 -11 -27 -20 -32 -20 -5 0 -14 -4 -21 -10 -79 -64 -128 -95 -246
-157 -47 -24 -91 -49 -99 -56 -8 -6 -22 -16 -32 -22 -80 -47 -121 -75 -103
-70 12 3 34 0 48 -8 25 -13 23 -14 -97 -71 -234 -111 -264 -123 -353 -152 -38
-13 -65 -24 -60 -24 14 -1 -148 -58 -215 -75 -30 -8 -73 -15 -95 -16 -22 -1
-32 -3 -21 -6 55 -14 368 49 552 113 474 162 964 498 1333 915 138 155 125
128 129 268 l5 124 110 -7 c61 -4 115 -10 119 -12 4 -3 5 -36 2 -74 l-7 -68
52 -52 c29 -29 55 -50 58 -46 3 3 0 12 -6 20 -7 8 -11 20 -10 28 1 7 1 68 0
136 -1 108 -3 124 -21 142 -11 11 -20 25 -20 30 0 6 -6 10 -12 11 -7 0 -22 2
-33 5 -11 2 -40 8 -65 13 -25 4 -37 9 -27 10 24 2 21 20 -5 32 -53 24 -80 42
-85 57 -14 36 -124 114 -140 99 -4 -5 -2 -12 6 -16 9 -6 5 -10 -13 -13 -22 -5
-26 -2 -21 13 4 11 2 19 -3 19 -5 0 -12 -8 -14 -18 -4 -12 -14 -17 -34 -16
-16 1 -28 7 -27 13 2 6 0 10 -5 9 -10 -3 -52 25 -52 36 0 4 6 4 13 -2 8 -7 16
-6 24 3 9 10 4 12 -25 11 -23 0 -36 4 -35 11 1 6 -9 14 -23 17 -15 4 -90 58
-168 120 -295 235 -429 336 -444 336 -9 0 -162 -145 -339 -322 -177 -177 -325
-320 -327 -317 -3 3 -11 79 -17 170 -7 90 -15 168 -19 172 -4 5 -70 -17 -146
-48 -213 -86 -216 -87 -202 -97 19 -12 36 -9 18 3 -11 8 -6 9 20 5 22 -4 28
-3 16 2 -14 6 3 13 65 29 62 16 86 18 91 10 5 -8 8 -5 8 8 1 14 5 10 16 -15
16 -36 7 -80 -16 -80 -6 0 -8 4 -5 10 3 6 -1 7 -10 3 -12 -4 -13 -8 -5 -13 7
-4 -15 -32 -61 -76 -39 -38 -147 -144 -238 -236 -92 -93 -172 -168 -177 -168
-6 0 -49 36 -95 80 -46 43 -86 79 -89 80 -10 0 303 314 316 318 8 1 27 5 44 9
16 3 27 9 25 14 -3 4 -17 4 -32 -2 -14 -5 -28 -7 -31 -5 -3 3 109 124 249 268
267 277 680 713 790 835 35 39 66 71 69 72 3 0 48 -33 100 -75z m1333 -14 c27
-22 52 -82 43 -105 -3 -8 -38 -24 -78 -35 -40 -12 -86 -28 -101 -37 -16 -8
-30 -13 -31 -11 -2 1 -9 26 -15 53 -7 28 -22 60 -33 72 -12 13 -20 25 -17 27
11 9 157 55 180 55 15 1 38 -8 52 -19z m-255 -144 c3 -20 0 -27 -10 -24 -7 3
-14 17 -16 32 -3 20 0 27 10 24 7 -3 14 -17 16 -32z m-4391 -453 c-3 -10 -5
-2 -5 17 0 19 2 27 5 18 2 -10 2 -26 0 -35z m-27 -113 c0 -13 -7 -20 -20 -20
-13 0 -20 7 -20 20 0 13 7 20 20 20 13 0 20 -7 20 -20z m87 -12 c-3 -8 -6 -5
-6 6 -1 11 2 17 5 13 3 -3 4 -12 1 -19z m23 -117 c37 -6 22 -9 -87 -15 -115
-7 -132 -10 -136 -26 -9 -33 -5 -150 5 -150 5 0 6 -4 3 -10 -3 -5 -14 -10 -24
-10 -16 0 -19 13 -24 101 -4 56 -4 106 -1 110 6 11 201 10 264 0z m1580 -105
c0 -8 6 -17 13 -19 8 -4 7 -6 -3 -6 -23 -1 -43 15 -36 28 10 16 26 14 26 -3z
m-67 -30 c6 -16 -2 -28 -14 -20 -12 7 -11 34 0 34 5 0 11 -6 14 -14z m47 -7
c0 -7 12 -10 30 -7 17 3 30 1 30 -4 0 -14 -55 -9 -76 7 -17 13 -17 14 -1 15 9
0 17 -5 17 -11z m-1662 -165 c50 -10 6 -24 -79 -24 l-90 0 3 -95 3 -95 -32 0
-33 0 0 109 c0 64 4 111 10 113 14 4 190 -2 218 -8z m4073 -51 c13 -16 12 -17
-3 -4 -10 7 -18 15 -18 17 0 8 8 3 21 -13z m74 -73 c10 -11 16 -20 13 -20 -3
0 -13 9 -23 20 -10 11 -16 20 -13 20 3 0 13 -9 23 -20z m145 -30 c0 -5 -4 -10
-10 -10 -5 0 -10 5 -10 10 0 6 5 10 10 10 6 0 10 -4 10 -10z m-4390 -160 c23
-7 -38 -12 -172 -14 -24 -1 -27 -6 -33 -46 -4 -25 -11 -47 -15 -50 -5 -3 -11
-43 -16 -89 -5 -62 -4 -82 5 -77 8 5 11 -7 11 -38 0 -25 -3 -46 -7 -46 -5 0
-18 -3 -30 -6 l-23 -6 0 191 0 191 128 -1 c70 -1 138 -5 152 -9z m6277 -24
c54 -25 101 -78 130 -146 20 -47 13 -133 -15 -190 -22 -46 -89 -100 -124 -100
-9 0 -58 30 -107 68 -49 37 -121 90 -160 117 -62 44 -70 54 -70 83 -1 18 8 50
19 72 54 106 208 151 327 96z m287 -377 c44 -159 60 -239 49 -249 -4 -4 -30
-15 -57 -24 l-50 -16 -30 29 c-35 32 -78 56 -150 81 l-48 17 47 24 c102 51
154 120 177 236 14 68 17 62 62 -98z m-7597 -104 c2 -27 1 -69 -2 -93 l-6 -43
-62 7 c-79 9 -102 17 -132 50 -28 30 -32 70 -11 99 15 21 81 34 160 31 l49 -1
4 -50z m1473 39 c13 -5 13 -6 0 -14 -21 -13 -747 -13 -755 0 -18 30 11 32 374
25 201 -4 373 -9 381 -11z m-1205 -19 c29 -28 31 -42 10 -73 -21 -29 -132 -82
-172 -82 l-33 0 0 90 0 90 85 0 c78 0 88 -2 110 -25z m529 -25 c20 -7 26 -16
26 -40 0 -29 -2 -30 -45 -30 -44 0 -45 0 -45 33 0 49 13 57 64 37z m5916 -848
c0 -782 -2 -863 -17 -913 -12 -39 -17 -84 -16 -163 2 -105 1 -110 -32 -176
-32 -64 -56 -87 -76 -74 -5 3 -9 451 -9 1095 l0 1089 75 0 75 0 0 -858z
m-6470 755 c0 -2 -10 -12 -21 -23 -22 -19 -22 -19 -10 4 10 18 31 31 31 19z
m638 -84 c-3 -14 -19 -20 -77 -26 -77 -8 -130 -28 -132 -50 -3 -25 -7 -218 -8
-365 -1 -118 -4 -158 -15 -174 -12 -17 -16 -18 -20 -7 -3 8 -7 150 -8 317 -3
348 -17 310 112 315 41 2 92 4 113 5 32 2 38 -1 35 -15z m-195 -88 c-3 -9 -8
-14 -10 -11 -3 3 -2 9 2 15 9 16 15 13 8 -4z m6517 5 c0 -5 -2 -10 -4 -10 -3
0 -8 5 -11 10 -3 6 -1 10 4 10 6 0 11 -4 11 -10z m-7204 -72 c-3 -24 -6 -62
-5 -85 0 -23 -5 -44 -10 -48 -19 -11 -174 15 -227 39 -29 13 -55 22 -58 20 -4
-2 -2 2 4 8 16 19 12 32 -5 18 -21 -17 -19 -1 5 37 25 42 59 51 194 52 l108 1
-6 -42z m323 26 c32 -13 60 -41 49 -49 -2 -1 -28 -11 -58 -22 -30 -12 -86 -34
-125 -51 -122 -51 -111 -55 -118 40 -3 45 -3 86 -1 90 10 15 211 9 253 -8z
m7311 -108 c0 -3 -4 -8 -10 -11 -5 -3 -10 -1 -10 4 0 6 5 11 10 11 6 0 10 -2
10 -4z m-361 -75 c9 -6 11 -18 6 -40 -6 -28 -9 -30 -33 -24 -30 8 -56 8 -87 0
-11 -3 -22 -6 -25 -6 -11 -2 -39 -58 -33 -65 3 -3 1 -6 -7 -6 -9 0 -11 -13 -6
-52 l6 -53 -20 23 c-45 54 -46 145 -2 185 44 40 163 62 201 38z m213 -26 c-2
-11 -3 -29 -3 -40 0 -13 -2 -16 -7 -8 -6 10 -13 9 -30 -3 -12 -8 -20 -19 -17
-24 3 -4 -3 -6 -14 -3 -14 3 -21 -3 -29 -24 -9 -24 -11 -19 -11 40 -1 61 1 69
22 77 12 5 38 8 57 7 29 -2 34 -6 32 -22z m203 15 c3 -5 1 -10 -4 -10 -6 0
-11 5 -11 10 0 6 2 10 4 10 3 0 8 -4 11 -10z m-3469 -45 c-11 -8 -14 -15 -8
-15 7 0 12 -5 12 -10 0 -7 -7 -7 -21 0 -20 11 -20 12 -2 25 10 8 23 14 28 14
6 0 1 -6 -9 -14z m3340 -12 c-7 -7 -26 7 -26 19 0 6 6 6 15 -2 9 -7 13 -15 11
-17z m-400 -58 c6 -20 7 -38 3 -41 -5 -3 -9 2 -9 11 0 11 -5 15 -14 12 -15 -6
-33 29 -22 40 3 4 6 -1 6 -11 0 -10 5 -14 11 -11 6 4 8 13 5 21 -3 8 -2 14 2
14 4 0 12 -16 18 -35z m111 -12 c-3 -10 -5 -2 -5 17 0 19 2 27 5 18 2 -10 2
-26 0 -35z m275 12 c-12 -14 -33 -36 -48 -47 -24 -20 -26 -20 -16 -2 16 29 72
87 79 81 3 -3 -4 -18 -15 -32z m-295 -12 c-3 -10 -5 -4 -5 12 0 17 2 24 5 18
2 -7 2 -21 0 -30z m237 7 c-6 -6 -10 -3 -10 10 0 13 4 16 10 10 7 -7 7 -13 0
-20z m-7542 -55 c27 -9 50 -21 53 -25 10 -16 -7 -60 -22 -60 -9 0 -11 -5 -7
-12 6 -9 3 -9 -9 0 -14 12 -62 15 -172 9 -20 -1 -35 -14 -35 -30 0 -9 41 1 50
12 3 3 23 3 45 0 l40 -6 -42 -2 c-35 -1 -42 -5 -45 -23 -2 -19 -8 -22 -33 -20
-42 5 -49 16 -30 46 10 14 13 26 7 26 -6 0 -19 3 -29 6 -14 5 -15 4 -4 -4 12
-9 9 -12 -15 -17 -16 -3 -36 -10 -45 -15 -9 -4 -22 -4 -29 0 -32 20 -90 -36
-70 -68 9 -14 10 -14 5 6 -5 16 -2 22 9 22 9 0 16 -5 16 -11 0 -5 5 -7 10 -4
6 3 10 2 10 -3 0 -5 10 -14 23 -20 19 -10 13 -11 -33 -9 l-55 2 -3 43 c-2 27
3 53 12 66 16 26 106 87 151 104 41 16 189 8 247 -13z m443 -4 c69 -34 95 -55
120 -93 l17 -27 -34 17 c-28 14 -63 17 -226 17 -209 0 -211 0 -197 58 5 20 17
27 68 40 103 26 182 22 252 -12z m7017 -35 c14 4 18 2 14 -5 -4 -6 -16 -11
-27 -11 -14 0 -19 6 -18 28 2 24 2 24 6 4 4 -18 9 -21 25 -16z m-7485 -72 c-3
-3 -12 -4 -19 -1 -8 3 -5 6 6 6 11 1 17 -2 13 -5z m280 0 c-3 -3 -12 -4 -19
-1 -8 3 -5 6 6 6 11 1 17 -2 13 -5z m-510 -10 c-3 -3 -12 -4 -19 -1 -8 3 -5 6
6 6 11 1 17 -2 13 -5z m294 -57 c2 -25 0 -50 -4 -53 -4 -4 -7 19 -7 51 0 69 8
70 11 2z m7195 -24 c58 -27 64 -29 84 -32 17 -2 11 -31 -7 -32 -17 -1 -17 -2
0 -6 9 -2 15 -9 12 -14 -4 -5 -27 7 -52 26 -52 40 -59 41 -85 18 -22 -20 -23
-36 -3 -53 9 -7 14 -19 11 -26 -3 -8 0 -11 8 -8 7 3 18 -1 24 -9 10 -11 5 -24
-23 -61 -20 -25 -40 -46 -44 -46 -5 0 -23 16 -40 35 -27 31 -31 43 -31 91 0
58 9 85 43 122 26 28 32 28 103 -5z m-7463 -10 c-7 -2 -21 -2 -30 0 -10 3 -4
5 12 5 17 0 24 -2 18 -5z m7865 -28 c-3 -3 -9 2 -12 12 -6 14 -5 15 5 6 7 -7
10 -15 7 -18z m-5470 -10 c4 -3 -1 -12 -11 -20 -15 -11 -9 -12 43 -11 51 1 60
-2 60 -16 0 -12 7 -18 23 -17 16 1 18 2 5 6 -31 8 -19 21 17 20 19 -1 35 -5
35 -9 0 -4 11 -8 24 -8 29 0 56 -9 56 -19 0 -13 -49 -31 -66 -24 -12 4 -15 1
-12 -13 3 -17 -7 -20 -87 -31 -85 -11 -239 -55 -259 -74 -22 -20 -26 -4 -26
106 0 107 1 115 19 115 11 0 23 -4 26 -10 3 -5 12 -10 18 -9 9 0 9 2 0 6 -7 2
-13 9 -13 15 0 12 136 6 148 -7z m49 -21 c-3 -3 -12 -4 -19 -1 -8 3 -5 6 6 6
11 1 17 -2 13 -5z m-497 -42 c0 -15 -32 -52 -44 -52 -3 0 3 18 12 39 17 39 32
45 32 13z m-1570 8 c0 -5 -2 -10 -4 -10 -3 0 -8 5 -11 10 -3 6 -1 10 4 10 6 0
11 -4 11 -10z m2370 -30 c0 -5 -5 -10 -11 -10 -5 0 -7 5 -4 10 3 6 8 10 11 10
2 0 4 -4 4 -10z m-1844 -161 c121 -122 151 -156 142 -164 -1 -1 -36 -4 -77 -6
-49 -3 -75 0 -78 7 -2 7 5 10 20 7 31 -6 42 11 19 28 -15 13 -16 12 -3 -3 14
-19 12 -22 -13 -12 -9 3 -16 18 -16 33 0 17 -3 22 -8 13 -9 -13 -82 -13 -82 0
0 15 23 20 31 7 4 -7 11 -10 15 -6 4 4 -2 15 -15 23 -14 10 -21 23 -18 35 3
10 -2 24 -11 31 -12 10 -14 10 -8 1 4 -7 3 -13 -3 -13 -5 0 -11 10 -13 22 -2
12 -13 28 -26 34 -12 6 -26 15 -30 19 -4 5 -1 5 7 0 10 -5 12 -4 7 4 -4 6 -11
9 -16 6 -5 -3 -11 -1 -15 5 -3 5 -18 9 -33 9 l-27 -1 30 -8 30 -8 -32 -1 c-26
-1 -35 5 -48 29 -27 52 -22 59 48 62 40 2 68 -2 79 -10 9 -8 74 -72 144 -143z
m1125 94 c-17 -21 -40 -49 -51 -62 -11 -13 -22 -22 -25 -20 -2 3 18 33 46 68
28 34 53 60 56 57 3 -3 -8 -22 -26 -43z m70 -26 c-5 -7 -9 -32 -8 -56 2 -34
-2 -45 -14 -46 -9 -2 -31 -6 -49 -10 -23 -5 -30 -4 -26 4 4 6 14 11 21 11 17
0 35 30 35 58 0 10 9 27 20 37 11 10 21 25 21 34 1 13 2 12 6 -2 3 -10 0 -24
-6 -30z m1029 23 c0 -5 -5 -10 -11 -10 -5 0 -7 5 -4 10 3 6 8 10 11 10 2 0 4
-4 4 -10z m2377 -6 c-3 -3 -12 -4 -19 -1 -8 3 -5 6 6 6 11 1 17 -2 13 -5z
m-3447 -18 c0 -3 -4 -8 -10 -11 -5 -3 -10 -1 -10 4 0 6 5 11 10 11 6 0 10 -2
10 -4z m1063 -3 c-7 -2 -19 -2 -25 0 -7 3 -2 5 12 5 14 0 19 -2 13 -5z m-2419
-88 c15 -40 26 -78 25 -84 -2 -6 -18 28 -35 74 -17 47 -29 85 -25 85 3 0 19
-34 35 -75z m2548 30 c95 -20 265 -54 378 -76 664 -130 1220 -270 1725 -432
203 -66 195 -62 195 -97 0 -16 -4 -30 -10 -30 -6 0 -6 -9 0 -26 13 -33 13
-184 0 -184 -5 0 -7 -7 -4 -15 5 -13 -18 -15 -174 -15 l-180 0 -104 53 c-174
87 -323 155 -543 248 -77 33 -149 64 -160 68 -11 5 -96 39 -190 76 -93 37
-183 73 -200 80 -16 7 -59 26 -95 41 -82 35 -86 39 -47 40 18 1 34 -2 37 -6 3
-4 16 -10 30 -14 17 -5 21 -4 11 2 -8 6 -9 12 -3 16 6 3 13 2 17 -4 4 -6 53
-9 123 -8 64 0 101 3 82 5 -262 25 -269 26 -380 43 -77 13 -146 33 -314 94
-55 20 -104 35 -110 33 -6 -2 17 -14 52 -27 34 -12 62 -26 62 -30 0 -5 10 -6
23 -3 18 4 19 3 7 -7 -12 -9 -8 -11 18 -6 24 4 34 2 38 -9 4 -8 12 -15 20 -15
16 0 16 -2 8 -24 -8 -20 -38 -21 -54 -1 -10 12 -10 15 1 16 21 1 -32 20 -61
23 -54 4 -111 30 -127 57 -9 15 -48 45 -87 67 -39 22 -96 54 -126 71 -30 17
-50 31 -43 31 6 0 89 -16 185 -35z m-2662 -17 c11 -24 20 -51 20 -60 0 -21
-48 -37 -161 -53 l-89 -12 0 52 0 52 58 13 c31 7 77 21 102 31 25 10 46 18 48
18 2 1 12 -18 22 -41z m2248 21 c79 -12 182 -46 202 -67 13 -13 13 -14 -5 -8
-52 19 -228 28 -342 17 -169 -17 -203 -22 -203 -32 0 -5 -6 -9 -12 -9 -11 0
-66 -33 -119 -72 -14 -9 -20 -8 -34 5 -12 13 -21 14 -35 7 -32 -17 -74 -14
-118 9 -55 28 -47 40 56 80 228 87 386 105 610 70z m-828 -10 c0 -11 -4 -18
-10 -14 -5 3 -7 12 -3 20 7 21 13 19 13 -6z m-1235 -27 c-6 -7 -34 11 -29 19
3 5 11 3 19 -4 7 -6 12 -13 10 -15z m1215 -10 c3 -3 -6 -2 -20 2 -14 4 -30 8
-37 8 -6 1 -9 7 -6 14 4 10 11 10 31 -3 15 -9 29 -19 32 -21z m-1798 16 c56
-7 92 -17 95 -25 3 -7 2 -28 -1 -47 -7 -39 -33 -51 -75 -34 -40 17 -219 27
-281 16 -30 -5 -70 -18 -87 -28 -37 -22 -39 -20 -19 19 19 36 86 81 144 97 61
16 114 17 224 2z m535 -10 c-3 -8 -6 -5 -6 6 -1 11 2 17 5 13 3 -3 4 -12 1
-19z m1340 -24 c-3 -3 -12 -4 -19 -1 -8 3 -5 6 6 6 11 1 17 -2 13 -5z m580
-20 c-3 -3 -12 -4 -19 -1 -8 3 -5 6 6 6 11 1 17 -2 13 -5z m-737 -38 c105 -27
149 -47 229 -105 79 -57 128 -80 172 -81 86 -1 200 -75 212 -137 6 -32 -9 -77
-23 -68 -6 4 -7 -1 -3 -10 5 -14 8 -14 15 -3 7 9 8 8 6 -7 -3 -18 -11 -20 -68
-20 -36 -1 -71 3 -77 8 -9 6 -13 5 -13 -4 0 -11 -2 -11 -10 1 -13 21 -12 30 3
26 6 -1 9 -1 5 1 -5 3 -8 12 -8 21 0 13 -2 14 -9 4 -7 -11 -10 -10 -15 3 -9
23 -8 25 8 19 9 -4 13 4 12 25 -1 28 -16 47 -16 21 0 -7 -6 -7 -17 -1 -10 5
-56 9 -102 10 -74 1 -89 -2 -121 -23 -20 -13 -47 -44 -60 -70 l-25 -46 -152 0
-153 0 0 80 0 80 -43 0 -42 0 3 -80 4 -80 -81 0 c-79 0 -82 1 -93 28 -21 47
-48 82 -79 97 -34 18 -88 23 -359 30 -250 7 -255 6 -255 -75 0 -53 1 -55 30
-61 29 -6 29 -7 -7 -8 -21 0 -41 0 -45 0 -12 3 -54 121 -51 143 2 11 18 30 36
42 68 46 306 121 416 130 58 5 64 4 129 -36 l67 -41 273 -6 c149 -3 330 -3
400 2 122 7 127 8 112 25 -24 26 -151 88 -220 105 -76 20 -218 31 -193 15 10
-6 31 -12 47 -13 16 -1 27 -5 25 -8 -2 -4 3 -9 11 -13 17 -6 21 -36 5 -36 -5
0 -10 5 -10 10 0 6 -5 10 -11 10 -5 0 -7 -4 -4 -10 3 -5 -3 -10 -14 -10 -12 0
-21 -6 -21 -12 0 -9 -4 -8 -10 2 -7 11 -10 12 -10 2 0 -16 -24 -42 -38 -42 -5
0 -20 30 -33 66 l-23 66 -166 -6 c-91 -3 -186 -8 -211 -12 -35 -4 -48 -2 -58
10 -17 21 -13 25 51 48 48 17 78 18 333 14 216 -3 295 -8 345 -20z m-1757 -13
c-13 -2 -33 -2 -45 0 -13 2 -3 4 22 4 25 0 35 -2 23 -4z m2167 -43 c0 -5 -10
-10 -21 -10 -19 0 -20 -2 -8 -17 13 -15 12 -15 -10 -3 -24 12 -24 13 -6 26 22
16 45 18 45 4z m1328 -57 c-24 -6 -23 -23 1 -23 22 0 37 -16 20 -22 -7 -2 -5
-9 5 -17 14 -12 16 -12 11 1 -4 10 1 17 14 21 12 3 19 1 16 -4 -9 -14 13 -47
35 -54 11 -4 18 -10 15 -15 -3 -5 0 -14 7 -20 7 -6 31 -28 54 -48 22 -20 72
-53 110 -72 38 -19 71 -38 74 -41 3 -3 67 -41 143 -83 75 -43 137 -82 137 -87
0 -5 9 -9 19 -9 11 0 26 -9 34 -20 10 -14 30 -21 80 -26 47 -5 67 -11 67 -20
0 -10 -13 -14 -40 -14 -29 0 -40 4 -40 15 0 11 -11 15 -40 15 -38 0 -40 -2
-40 -30 0 -28 -2 -30 -40 -30 -42 0 -55 -16 -17 -22 12 -2 -59 -5 -158 -6 -98
-2 -181 -5 -184 -7 -2 -3 32 -5 77 -5 48 0 82 -4 82 -10 0 -6 -47 -10 -121
-10 -113 0 -125 2 -186 30 -64 30 -65 31 -59 63 20 111 17 201 -10 307 -5 20
-4 22 6 10 10 -13 11 -12 6 3 -3 10 -6 21 -6 23 0 3 -4 3 -9 0 -5 -4 -15 7
-23 24 -7 16 -17 30 -21 30 -5 0 -5 9 -2 20 4 12 2 20 -5 20 -6 0 -8 -6 -4
-12 4 -7 -9 4 -29 24 -34 34 -48 56 -29 44 4 -2 18 2 32 11 16 9 18 12 5 8
-36 -13 -68 -10 -72 5 -4 13 -3 13 6 0 9 -12 11 -10 11 11 0 25 3 27 43 26 23
0 34 -2 25 -4z m59 -9 c-3 -3 -12 -4 -19 -1 -8 3 -5 6 6 6 11 1 17 -2 13 -5z
m-324 -31 c49 -15 66 -37 22 -28 -14 3 -36 7 -50 10 -63 13 -201 -35 -243 -85
-23 -27 -62 -114 -62 -140 l-1 -25 -14 25 c-31 55 -6 141 60 198 77 69 168 83
288 45z m397 17 c8 -5 11 -10 5 -10 -5 0 -17 5 -25 10 -8 5 -10 10 -5 10 6 0
17 -5 25 -10z m-1110 -130 c6 -11 8 -20 6 -20 -3 0 -10 9 -16 20 -6 11 -8 20
-6 20 3 0 10 -9 16 -20z m4860 5 c117 -19 236 -53 252 -72 18 -22 19 -46 1
-39 -8 3 -20 6 -26 7 -7 1 -1 4 13 9 l25 7 -28 8 c-15 4 -94 3 -175 -3 l-147
-10 124 1 c94 2 125 -1 127 -11 1 -7 0 -8 -3 -2 -2 5 -21 10 -41 9 -33 -1 -35
-2 -12 -9 22 -7 21 -8 -15 -11 -32 -1 -34 -3 -12 -6 30 -5 30 -5 21 -27 -5
-13 -10 -14 -20 -5 -7 6 -21 9 -31 6 -14 -4 -13 -5 5 -6 12 0 22 -5 22 -11 0
-5 -10 -11 -22 -11 l-23 -2 23 -4 c12 -2 22 -9 22 -14 0 -6 -4 -8 -9 -5 -17
11 -164 18 -227 11 -45 -5 -78 -16 -118 -40 -32 -19 -56 -29 -57 -22 -1 7 -4
1 -8 -13 -4 -14 -13 -24 -19 -23 -7 2 -11 0 -10 -5 2 -12 -26 -102 -33 -102
-3 0 -7 -30 -7 -66 -1 -37 -3 -68 -4 -69 -2 -1 -13 -6 -25 -9 -18 -6 -22 -4
-17 7 3 8 -2 41 -12 73 -31 108 -1 250 72 337 58 69 137 111 239 127 28 4 52
8 55 9 3 0 48 -6 100 -14z m-5225 -65 c3 -6 -1 -7 -9 -4 -18 7 -21 14 -7 14 6
0 13 -4 16 -10z m-952 -81 c37 -40 36 -82 -2 -120 -45 -45 -111 -35 -144 21
-31 52 -18 95 39 125 38 20 72 12 107 -26z m892 6 c38 -37 35 -95 -7 -130 -26
-22 -39 -26 -67 -21 -19 3 -43 14 -53 24 -10 10 -21 34 -24 53 -14 82 92 133
151 74z m5512 19 c-3 -3 -12 -4 -19 -1 -8 3 -5 6 6 6 11 1 17 -2 13 -5z
m-6794 -51 c-7 -2 -21 -2 -30 0 -10 3 -4 5 12 5 17 0 24 -2 18 -5z m2493 -18
c8 -31 -12 -57 -40 -53 -13 2 -22 12 -24 26 -5 36 5 52 32 52 19 0 27 -7 32
-25z m2982 -156 l102 -43 0 -48 c0 -45 -1 -47 -22 -39 -13 5 -120 49 -238 98
-118 50 -239 98 -267 107 -53 18 -53 18 -53 61 l0 42 188 -67 c104 -37 234
-87 290 -111z m-342 -37 c154 -63 234 -101 234 -113 0 -26 -54 -18 -161 24
-63 24 -135 52 -161 62 -42 15 -48 21 -48 46 0 16 4 29 8 29 5 0 62 -22 128
-48z m-1397 12 c44 -9 39 -24 -9 -24 -22 0 -40 4 -40 9 0 6 -19 12 -42 14 -42
3 -42 4 8 5 28 1 66 -1 83 -4z m62 -51 c10 -11 10 -14 2 -9 -8 4 -13 1 -13 -8
0 -12 12 -16 48 -17 36 -1 29 -4 -33 -10 -125 -13 -129 -17 -15 -14 l105 4
-89 -9 c-52 -6 -160 -6 -265 -1 -175 8 -175 8 -55 10 113 1 122 2 127 21 5 18
14 20 81 20 61 0 76 3 76 15 0 20 14 19 31 -2z m-1483 -50 c2 -22 -1 -33 -10
-33 -120 -2 -3333 1 -3335 3 -1 2 -6 18 -9 35 l-7 32 1679 -2 1679 -3 3 -32z
m2737 7 c6 -4 39 -18 75 -30 82 -29 130 -49 130 -54 0 -3 -15 -28 -32 -57 -26
-41 -33 -64 -36 -118 -2 -36 1 -85 6 -107 l9 -41 -56 14 c-31 9 -76 18 -101
22 l-45 6 -3 192 -2 191 22 -5 c13 -3 28 -9 33 -13z m-1622 3 c-13 -2 -33 -2
-45 0 -13 2 -3 4 22 4 25 0 35 -2 23 -4z m-173 -17 c0 -2 -11 -6 -25 -8 -14
-3 -25 -1 -25 3 0 5 11 9 25 9 14 0 25 -2 25 -4z m57 -2 c-3 -3 -12 -4 -19 -1
-8 3 -5 6 6 6 11 1 17 -2 13 -5z m2191 -87 c24 -29 17 -39 -28 -43 -111 -10
-146 -31 -181 -108 l-19 -41 0 38 c0 44 18 82 53 115 46 44 152 67 175 39z
m-3233 -52 l0 -40 -253 4 c-140 1 -299 0 -354 -4 -91 -7 -103 -10 -132 -35
l-31 -28 0 -160 c0 -164 7 -201 44 -219 9 -4 187 -10 396 -13 l380 -5 3 -42
c3 -36 0 -43 -15 -44 -19 -1 -282 -8 -345 -9 -21 0 -38 -4 -38 -10 0 -5 32 -9
74 -8 55 1 81 -3 100 -15 16 -11 35 -15 50 -11 24 6 56 -16 56 -39 -1 -52 -40
-79 -81 -55 -17 11 -20 20 -16 50 3 23 1 38 -7 41 -20 8 -14 -75 7 -95 17 -16
17 -17 -5 -33 l-23 -16 26 6 c19 5 26 2 26 -9 0 -21 -70 -28 -242 -24 l-140 3
-5 30 -5 30 -280 6 c-154 4 -696 7 -1204 8 -508 0 -925 2 -926 3 -4 5 -35 67
-35 71 0 1 303 1 674 -1 370 -3 816 -1 991 3 293 7 318 9 322 25 5 20 64 36
86 24 8 -5 8 -3 -1 7 -11 12 -180 14 -1068 17 l-1054 3 -20 39 c-11 22 -20 42
-20 45 0 3 69 5 154 5 139 0 156 2 179 20 37 29 47 76 47 220 0 146 -14 187
-69 206 -21 7 -119 9 -267 8 -257 -3 -242 -7 -258 59 l-6 27 1642 -2 1643 -3
0 -40z m2208 6 l107 -1 0 -138 0 -138 -37 -13 c-111 -39 -265 -171 -335 -286
-76 -126 -108 -285 -87 -439 22 -163 24 -155 -51 -180 -258 -89 -446 -285
-511 -536 -27 -107 -24 -271 9 -365 11 -33 19 -61 18 -63 -2 -1 -37 6 -77 18
-93 25 -250 27 -330 4 -148 -43 -299 -163 -366 -289 -52 -99 -52 -99 -95 -80
-92 38 -260 5 -351 -69 -44 -35 -118 -126 -129 -157 -2 -4 -37 3 -78 16 -154
50 -219 66 -247 60 -17 -3 -21 -2 -11 2 13 6 -17 19 -105 48 -67 21 -126 42
-132 46 -5 4 -25 10 -43 14 -24 5 -32 11 -28 22 3 8 6 32 6 52 l0 38 63 5
c112 9 167 58 175 155 4 52 6 55 43 70 76 30 97 102 80 277 -13 131 -39 195
-108 264 -46 45 -134 91 -204 106 -31 7 -35 14 -44 89 l-7 56 618 3 619 3 80
34 c152 66 277 223 321 406 14 55 18 119 18 300 1 253 -5 294 -66 422 -32 69
-141 221 -164 230 -8 3 -14 8 -14 12 0 5 729 6 1463 2z m1563 -116 c4 -55 6
-121 5 -132 -1 -10 -36 -13 -140 -13 l-138 0 -46 -49 c-50 -54 -102 -146 -91
-163 4 -6 3 -8 -4 -4 -10 6 -29 -73 -24 -101 2 -8 -3 -10 -13 -7 -21 8 -20
122 1 195 50 171 228 303 399 296 42 -2 50 -5 51 -22z m-6654 -1 c13 -12 -9
-55 -52 -101 -25 -26 -73 -80 -107 -120 -48 -56 -64 -69 -72 -59 -15 18 -97
215 -106 254 l-7 32 170 0 c93 0 171 -3 174 -6z m2558 -10 c0 -8 -46 -66 -102
-127 -165 -182 -171 -187 -214 -187 -68 0 -74 14 -74 170 0 92 4 140 12 148 8
8 66 12 195 12 160 0 183 -2 183 -16z m308 -151 l2 -163 -45 0 -45 0 0 166 0
165 43 -3 42 -3 3 -162z m192 2 c-7 -9 -15 -13 -19 -10 -3 3 1 10 9 15 21 14
24 12 10 -5z m2670 -70 c19 -14 39 -25 44 -25 6 1 0 7 -14 16 l-25 15 25 -6
c34 -8 179 -80 210 -104 22 -18 23 -20 7 -27 -11 -4 -45 7 -91 29 -85 41 -193
77 -250 82 -47 5 -60 15 -20 15 46 0 78 11 62 21 -10 7 -10 9 3 9 8 0 30 -11
49 -25z m-153 -11 c-3 -3 -12 -4 -19 -1 -8 3 -5 6 6 6 11 1 17 -2 13 -5z
m-337 -24 c8 -5 11 -10 5 -10 -5 0 -17 5 -25 10 -8 5 -10 10 -5 10 6 0 17 -5
25 -10z m-35 -10 c3 -6 -1 -7 -9 -4 -18 7 -21 14 -7 14 6 0 13 -4 16 -10z
m-115 -54 c0 -2 -8 -10 -17 -17 -16 -13 -17 -12 -4 4 13 16 21 21 21 13z
m-1634 -17 c55 -14 136 -99 94 -99 -5 0 -10 4 -10 8 0 14 -73 32 -129 32 -65
0 -98 -17 -150 -77 -40 -46 -42 -47 -35 -18 13 56 44 105 82 129 59 37 83 41
148 25z m1569 -49 c3 -5 1 -10 -4 -10 -6 0 -11 5 -11 10 0 6 2 10 4 10 3 0 8
-4 11 -10z m-35 -40 c0 -6 -13 -24 -30 -42 -16 -17 -30 -37 -30 -44 0 -18 17
-27 23 -12 2 7 7 10 11 6 4 -3 1 -19 -8 -35 -10 -18 -15 -22 -16 -11 0 9 -5
20 -11 24 -8 4 -9 -1 -5 -17 7 -24 7 -24 -8 1 -17 28 -20 44 -7 36 5 -3 8 0 7
7 -1 12 61 97 70 97 2 0 4 -5 4 -10z m23 -30 c-3 -11 -9 -20 -14 -20 -10 0
-12 24 -2 33 13 13 21 7 16 -13z m422 -39 c67 -31 127 -107 124 -159 0 -10 -3
-12 -6 -5 -7 19 -33 -10 -34 -39 0 -22 -1 -22 -9 -3 -8 19 -9 18 -11 -5 -1
-14 -2 -31 -2 -37 1 -7 -3 -13 -8 -13 -5 0 -9 6 -9 13 0 6 -6 1 -13 -12 -6
-14 -18 -27 -26 -29 -10 -3 -7 5 7 23 16 20 22 41 22 76 0 39 -5 53 -30 77
-16 16 -40 32 -54 34 -23 5 -113 -7 -91 -12 6 -1 -1 -5 -14 -9 -14 -4 -26 -13
-29 -21 -3 -13 -2 -13 8 0 10 12 11 12 5 -5 -22 -63 -25 -84 -14 -111 7 -16
12 -36 11 -44 -1 -10 1 -11 4 -3 4 9 11 9 29 -3 17 -11 41 -15 75 -12 27 1 50
0 50 -4 0 -9 -17 -11 -92 -13 -52 -1 -71 -11 -48 -25 12 -7 12 -12 2 -22 -10
-10 -14 -8 -18 10 -4 12 -11 22 -16 22 -6 0 -7 -7 -4 -15 18 -44 15 -46 -9 -7
-14 23 -30 42 -36 42 -14 0 -11 -11 14 -44 30 -40 39 -56 33 -56 -15 0 -94
123 -106 163 -35 126 76 267 210 267 25 0 63 -9 85 -19z m-2708 3 c-3 -3 -12
-4 -19 -1 -8 3 -5 6 6 6 11 1 17 -2 13 -5z m2260 -10 c2 -7 -6 -11 -22 -10
-25 1 -31 7 -18 20 10 10 36 3 40 -10z m13 -38 c0 -3 -4 -8 -10 -11 -5 -3 -10
-1 -10 4 0 6 5 11 10 11 6 0 10 -2 10 -4z m1204 -30 l26 -34 -39 -15 c-40 -16
-91 -68 -91 -93 0 -8 -4 -14 -10 -14 -5 0 -10 -8 -10 -19 0 -10 -7 -24 -15
-31 -13 -10 -15 -9 -16 11 -4 85 20 149 75 197 20 17 41 32 45 32 5 0 20 -15
35 -34z m-1313 -14 c-6 -10 -7 -23 -3 -27 4 -3 7 -10 8 -13 0 -4 6 -20 13 -36
9 -24 9 -38 -3 -75 -9 -25 -25 -77 -37 -116 -26 -82 -37 -71 -38 40 -1 98 8
148 24 135 9 -8 15 -8 20 0 8 13 -4 32 -16 25 -12 -8 -11 5 2 44 6 17 15 31
20 31 4 0 6 8 2 18 -5 13 -3 14 6 6 10 -9 10 -17 2 -32z m58 -43 c1 -3 -6 -6
-14 -6 -10 0 -14 6 -10 14 3 8 5 20 6 26 0 11 17 -19 18 -34z m2191 30 c50
-11 64 -24 35 -35 -8 -4 -15 -10 -15 -16 0 -17 -121 -193 -131 -190 -6 1 -7
-2 -4 -8 4 -7 -2 -21 -13 -33 -11 -12 -25 -32 -31 -45 -7 -12 -16 -20 -21 -17
-5 3 -10 0 -12 -7 -2 -10 -10 -9 -34 3 -30 14 -31 17 -18 40 10 18 13 20 14 7
0 -10 4 -18 9 -18 5 0 7 18 4 40 -4 27 -2 40 6 40 7 0 9 -10 5 -27 l-6 -28 18
24 c12 17 14 26 6 29 -22 7 -12 34 28 74 31 31 40 48 40 73 0 24 -5 35 -17 37
-10 2 7 5 37 5 37 1 50 -1 40 -7 -12 -8 -9 -10 12 -10 32 0 58 9 58 21 0 11
-139 11 -200 -1 -133 -24 -167 -35 -247 -75 -67 -34 -82 -45 -60 -45 15 0 27
4 27 9 0 5 10 9 23 9 12 0 38 7 57 16 33 15 28 16 -30 1 l-25 -6 25 15 c15 9
49 15 83 16 l57 0 0 -36 c0 -36 0 -36 -40 -32 -22 2 -40 0 -40 -4 0 -5 6 -8
13 -8 6 0 21 -8 32 -17 19 -15 18 -15 -15 -9 -20 3 -29 2 -22 -2 23 -15 -10
-32 -51 -27 l-37 5 0 -40 c0 -39 -1 -40 -35 -40 -41 0 -53 -19 -37 -55 10 -21
8 -25 -16 -34 -15 -5 -20 -10 -12 -10 9 -1 27 7 40 16 28 20 29 20 41 1 5 -7
9 -8 9 -2 0 8 13 9 40 4 23 -4 42 -9 45 -11 4 -5 -132 -12 -190 -11 -106 3
-120 4 -95 9 14 3 31 10 38 15 13 11 13 30 -1 29 -3 0 -20 4 -37 9 -30 9 -31
8 -34 -27 -1 -7 -6 -13 -11 -12 -6 0 -8 8 -7 17 6 28 49 107 66 121 9 8 16 20
16 27 0 27 128 150 185 178 122 59 306 83 435 55z m-13 -55 c-3 -3 -12 -4 -19
-1 -8 3 -5 6 6 6 11 1 17 -2 13 -5z m-207 -24 c0 -5 -6 -10 -14 -10 -8 0 -18
5 -21 10 -3 6 3 10 14 10 12 0 21 -4 21 -10z m83 3 c-7 -2 -19 -2 -25 0 -7 3
-2 5 12 5 14 0 19 -2 13 -5z m-5101 -51 c120 -59 151 -141 227 -601 l27 -163
71 -19 c89 -22 128 -41 176 -88 39 -36 77 -98 77 -124 0 -11 -11 -9 -47 9 -31
16 -63 24 -97 24 -37 0 -47 -3 -36 -10 11 -7 6 -10 -20 -10 -26 0 -31 -3 -20
-10 13 -8 12 -10 -2 -10 -12 0 -18 -8 -18 -25 0 -14 5 -25 11 -25 6 0 8 7 5
16 -15 40 74 61 94 23 16 -29 5 -60 -28 -84 -26 -19 -43 -20 -402 -20 l-375 0
-3 362 c-2 352 -2 363 18 383 14 14 33 20 63 20 24 0 78 3 120 6 84 8 96 0 83
-50 -5 -19 -14 -25 -48 -29 -67 -8 -83 -14 -79 -28 2 -8 2 -75 2 -151 -1 -102
1 -138 11 -144 19 -12 39 -14 32 -3 -3 5 -1 9 5 9 18 0 21 -17 6 -30 -8 -7
-15 -23 -15 -36 0 -13 -4 -24 -9 -24 -20 0 -41 13 -41 25 0 8 -5 17 -12 21 -6
4 -8 3 -5 -3 4 -6 -2 -13 -13 -16 -19 -5 -19 0 -17 148 1 112 -1 157 -10 166
-11 10 -13 -25 -14 -176 -2 -212 -1 -216 12 -230 13 -13 173 -19 247 -10 45 6
62 13 89 40 l33 33 0 227 c0 252 -2 260 -67 305 -30 21 -49 24 -146 28 -62 2
-144 -1 -182 -6 -61 -10 -74 -16 -102 -46 -39 -43 -37 -12 -38 -451 l0 -340
-221 -3 -222 -2 -53 42 c-86 67 -267 229 -359 322 l-85 86 382 0 c338 0 382 2
387 16 3 9 6 134 6 280 l0 264 -26 6 c-14 4 -286 4 -605 2 l-579 -6 -45 57
c-25 31 -45 62 -45 69 0 10 181 12 928 10 l927 -3 47 -23z m3418 -96 c0 -3 -4
-8 -10 -11 -5 -3 -10 -1 -10 4 0 6 5 11 10 11 6 0 10 -2 10 -4z m1590 -44 c0
-15 -2 -15 -10 -2 -13 20 -13 33 0 25 6 -3 10 -14 10 -23z m-25 -31 c-3 -12
-11 -21 -16 -21 -5 0 -9 -20 -9 -45 0 -25 -4 -45 -10 -45 -5 0 -10 5 -10 11 0
7 -8 17 -17 24 -15 11 -27 55 -14 53 34 -3 53 5 62 28 11 31 24 26 14 -5z
m-102 -1 c3 -11 1 -20 -4 -20 -5 0 -9 9 -9 20 0 11 2 20 4 20 2 0 6 -9 9 -20z
m-6534 -84 c-2 -63 -2 -64 -21 -46 -12 11 -17 24 -13 31 5 7 4 10 -3 5 -5 -3
-25 12 -42 34 l-32 40 56 0 57 0 -2 -64z m203 17 c7 -88 4 -93 -63 -93 l-59 0
0 48 c0 26 -3 57 -6 70 -6 21 -4 22 59 22 l65 0 4 -47z m196 -20 l-3 -68 -62
-3 -63 -3 0 71 0 70 65 0 66 0 -3 -67z m202 -3 l0 -70 -65 0 -65 0 0 70 0 70
65 0 65 0 0 -70z m190 0 l0 -70 -59 0 c-67 0 -71 5 -71 93 l0 47 65 0 65 0 0
-70z m200 0 l0 -71 -62 3 -63 3 -3 68 -3 67 66 0 65 0 0 -70z m5634 -34 c-6
-15 -24 -23 -24 -11 0 8 24 34 28 30 1 -1 0 -10 -4 -19z m-426 -26 c12 -1 10
-5 -8 -15 -31 -17 -33 -15 -23 21 5 21 8 24 11 12 2 -10 11 -18 20 -18z m92
20 c0 -5 -7 -10 -16 -10 -8 0 -12 5 -9 10 3 6 10 10 16 10 5 0 9 -4 9 -10z
m197 4 c-3 -3 -12 -4 -19 -1 -8 3 -5 6 6 6 11 1 17 -2 13 -5z m153 -28 c0 -3
-4 -8 -10 -11 -5 -3 -10 -1 -10 4 0 6 5 11 10 11 6 0 10 -2 10 -4z m-1425 -56
c-4 -12 -2 -19 4 -18 16 4 114 -96 100 -101 -7 -2 -18 4 -25 13 -8 12 -13 13
-16 5 -3 -8 -21 -11 -54 -9 -80 5 -125 4 -194 -4 -86 -9 -260 -57 -253 -70 4
-5 -3 -7 -15 -4 -15 4 -19 2 -15 -8 5 -13 -8 -19 -30 -15 -5 1 -6 -2 -3 -7 3
-5 -6 -14 -19 -20 -14 -7 -25 -16 -25 -21 0 -5 -7 -12 -16 -15 -14 -5 -15 -4
-4 9 28 34 1 22 -34 -15 -21 -22 -49 -43 -62 -46 -22 -6 -28 -15 -25 -36 0 -4
-6 -5 -14 -2 -8 4 -15 1 -15 -7 0 -7 -3 -9 -7 -5 -13 13 127 134 219 192 120
74 311 165 320 151 3 -5 4 -16 1 -23 -6 -15 19 -44 38 -44 8 0 6 6 -4 18 -20
22 -11 37 10 17 19 -19 38 -19 57 1 9 8 21 12 27 8 8 -5 9 -3 4 5 -4 8 4 24
21 42 33 34 37 36 29 9z m-4617 -119 l-3 -86 -38 -1 c-86 -2 -87 -2 -87 92 l0
83 28 3 c15 2 44 1 65 -1 l38 -3 -3 -87z m3993 86 c-6 -8 -9 -16 -6 -19 3 -2
-21 -15 -53 -28 -226 -92 -355 -195 -437 -350 -26 -50 -52 -90 -56 -90 -11 0
-12 -1 7 53 9 26 19 45 24 42 4 -3 7 3 6 13 0 9 4 16 11 15 7 -2 10 4 6 13 -3
8 -2 14 3 13 20 -3 26 2 15 14 -8 11 -4 25 20 61 72 108 241 225 379 260 74
20 96 20 81 3z m1902 6 c-7 -2 -19 -2 -25 0 -7 3 -2 5 12 5 14 0 19 -2 13 -5z
m-6286 -48 c-2 -25 -6 -48 -9 -51 -8 -7 -58 17 -58 28 0 5 -4 7 -8 4 -10 -6
-52 38 -52 54 0 6 29 10 66 10 l66 0 -5 -45z m193 -39 c0 -47 -3 -87 -7 -89
-5 -2 -33 -1 -63 2 l-55 6 -3 83 -4 82 66 0 66 0 0 -84z m390 -3 l0 -88 -60 0
-60 -1 0 72 c0 40 -3 79 -6 88 -5 14 4 16 60 16 l66 0 0 -87z m200 0 l0 -88
-65 -2 -65 -3 0 90 0 90 65 0 65 0 0 -87z m5320 80 c0 -5 -18 -21 -40 -37 -22
-16 -38 -32 -35 -35 3 -2 17 6 33 20 l27 24 -23 -26 c-12 -14 -20 -28 -17 -31
3 -3 -5 -4 -18 -3 -24 3 -92 -49 -83 -63 3 -5 -5 -14 -17 -22 -21 -12 -21 -12
-7 6 8 11 2 8 -14 -6 -15 -14 -34 -38 -42 -53 -8 -15 -19 -25 -24 -22 -6 4
-10 -1 -10 -9 0 -9 -4 -16 -10 -16 -5 0 -6 -7 -3 -17 4 -11 3 -14 -5 -9 -8 4
-10 2 -6 -7 3 -8 1 -18 -5 -22 -6 -3 -11 -13 -11 -21 0 -12 2 -12 14 -2 8 7
13 15 11 18 -2 3 3 16 11 30 l15 25 -4 -28 c-2 -15 0 -30 4 -33 5 -3 9 -14 9
-25 0 -11 -4 -17 -10 -14 -5 3 -10 -1 -10 -9 0 -21 21 -31 31 -15 7 11 9 10 9
-3 0 -11 -10 -20 -26 -24 -30 -8 -57 -31 -67 -58 -4 -9 -11 -14 -17 -11 -5 3
-10 -2 -10 -12 0 -15 -2 -16 -10 -3 -6 9 -5 17 2 21 5 4 7 15 4 25 -3 11 -2
35 4 54 16 57 3 45 -21 -19 -40 -110 -49 -63 -12 68 40 145 140 268 273 335
69 34 110 45 110 29z m230 -3 c0 -5 -7 -7 -15 -4 -8 4 -15 8 -15 10 0 2 7 4
15 4 8 0 15 -4 15 -10z m-50 -10 c0 -5 -7 -7 -15 -4 -8 4 -15 8 -15 10 0 2 7
4 15 4 8 0 15 -4 15 -10z m70 2 c0 -17 -51 -61 -65 -56 -24 10 -17 26 8 19 17
-5 19 -4 7 4 -13 10 -13 12 0 20 8 5 17 8 21 5 4 -2 10 0 14 6 7 12 15 13 15
2z m-5066 -58 c23 -9 20 -24 -4 -24 -11 0 -20 7 -20 15 0 17 2 18 24 9z m4793
-9 c0 -8 -4 -12 -9 -9 -5 3 -6 10 -3 15 9 13 12 11 12 -6z m180 -43 c-15 -14
-27 -21 -27 -14 0 6 5 12 11 12 6 0 8 7 5 16 -3 8 -2 12 3 9 5 -3 13 0 16 6 4
5 10 8 13 4 3 -3 -6 -18 -21 -33z m-260 -9 c0 -16 -2 -22 -4 -15 -4 10 -8 10
-19 1 -20 -16 -17 -3 4 20 9 11 18 20 18 20 1 1 1 -11 1 -26z m201 -49 c10 4
-18 -28 -60 -69 -43 -42 -78 -78 -78 -82 0 -13 -54 -63 -67 -63 -7 0 -13 -6
-13 -12 0 -7 -13 -22 -27 -32 -22 -17 -26 -17 -20 -3 3 9 2 19 -3 22 -6 4 -10
12 -10 18 0 7 5 4 11 -5 5 -10 14 -18 19 -18 16 0 11 22 -7 36 -16 12 -14 13
13 8 24 -5 37 0 60 20 17 15 22 23 12 20 -10 -3 -18 -9 -18 -13 0 -4 -11 -8
-25 -9 -14 -1 -25 3 -25 8 0 6 7 10 15 10 45 0 68 17 62 46 -4 24 15 34 28 14
13 -21 26 -10 15 13 -10 20 -10 20 3 5 13 -17 15 -17 31 0 9 10 13 22 10 25
-4 4 0 9 9 13 9 3 22 22 29 42 8 26 13 32 16 19 2 -12 9 -16 20 -13z m-4856
-34 c-2 -22 -6 -40 -8 -40 -2 0 -4 18 -4 40 0 22 3 40 8 40 4 0 6 -18 4 -40z
m3780 29 c77 -17 149 -51 197 -94 37 -33 41 -42 41 -83 0 -60 -35 -107 -91
-122 -41 -11 -742 -16 -759 -5 -21 13 -38 -66 -43 -202 -1 -49 -9 -47 -39 10
-35 65 -32 182 6 264 51 110 176 208 298 232 64 13 329 13 390 0z m798 -20 c0
-6 -4 -7 -10 -4 -14 9 -12 -8 3 -25 10 -12 9 -12 -5 -1 -9 7 -23 9 -29 5 -8
-5 -9 -3 -3 7 21 35 44 45 44 18z m-4608 -81 c-12 -12 -24 46 -15 69 5 13 9 8
15 -21 5 -22 5 -43 0 -48z m4798 42 c0 -5 -4 -10 -10 -10 -5 0 -10 5 -10 10 0
6 5 10 10 10 6 0 10 -4 10 -10z m-4830 -44 c0 -19 -4 -38 -10 -41 -6 -4 -10
10 -10 34 0 23 5 41 10 41 6 0 10 -15 10 -34z m3070 -25 c0 -6 -4 -13 -10 -16
-5 -3 -10 1 -10 9 0 9 5 16 10 16 6 0 10 -4 10 -9z m1 -62 c-17 -34 -31 -68
-31 -74 0 -7 -9 -20 -20 -30 -12 -11 -21 -32 -21 -54 l-2 -36 -7 40 c-6 36 -7
32 -9 -27 0 -38 -5 -68 -9 -68 -5 0 -8 30 -8 68 l1 67 -41 0 c-29 0 -40 3 -37
12 6 17 20 17 27 1 4 -7 5 -4 2 8 -3 21 60 121 71 111 3 -3 -4 -16 -16 -28
-11 -12 -18 -27 -14 -32 4 -6 1 -7 -7 -2 -10 6 -12 4 -7 -9 4 -10 3 -15 -3
-11 -12 7 -12 -3 0 -30 8 -19 9 -19 9 -1 1 20 1 20 15 0 10 -12 18 -16 25 -9
11 12 3 65 -11 65 -5 0 -3 7 6 15 9 9 26 14 41 11 20 -4 28 1 42 27 16 30 18
36 22 54 0 3 4 4 7 0 3 -3 -8 -34 -25 -68z m1589 50 c0 -5 -4 -9 -10 -9 -5 0
-10 7 -10 16 0 8 5 12 10 9 6 -3 10 -10 10 -16z m-4545 -59 c3 -5 2 -10 -4
-10 -5 0 -13 5 -16 10 -3 6 -2 10 4 10 5 0 13 -4 16 -10z m2911 -203 c0 -78
-1 -87 -10 -57 -8 30 -10 32 -14 13 -6 -41 -18 -24 -13 20 3 33 5 38 12 22 5
-14 8 -1 8 38 1 95 16 64 17 -36z m-150 51 c-2 -18 -8 -49 -12 -68 -6 -29 -8
-31 -16 -15 -6 16 -7 14 -2 -5 14 -60 16 -80 5 -80 -6 0 -11 -7 -11 -15 0 -8
-5 -15 -10 -15 -7 0 -7 6 0 19 5 11 9 35 9 53 -2 30 -2 31 -6 5 -2 -15 -11
-40 -19 -55 l-15 -27 6 34 c4 18 8 39 10 45 1 6 7 24 13 39 7 16 12 34 12 40
0 7 4 6 11 -3 9 -12 10 -10 6 9 -5 20 10 71 20 71 2 0 2 -15 -1 -32z m21 -100
c-2 -13 -4 -3 -4 22 0 25 2 35 4 23 2 -13 2 -33 0 -45z m56 -17 c-1 -1 -6 0
-12 4 -13 7 -15 58 -3 69 6 7 21 -63 15 -73z m-73 7 c-1 -26 -3 -30 -10 -16
-6 9 -7 23 -4 32 9 25 14 19 14 -16z m1540 -23 c-7 -9 -15 -13 -19 -10 -3 3 1
10 9 15 21 14 24 12 10 -5z m-1610 -315 c6 0 10 -9 10 -20 0 -11 -4 -20 -9
-20 -15 0 -21 58 -19 169 l2 106 3 -117 c2 -67 8 -118 13 -118z m-2052 177
l-3 -32 -633 -3 -632 -2 -50 32 c-27 18 -50 35 -50 38 0 3 309 4 686 2 l685
-2 -3 -33z m2123 -109 l2 -23 4 23 c5 28 23 29 23 2 0 -11 -7 -23 -16 -27 -8
-3 -13 -12 -10 -19 4 -10 -5 -14 -34 -14 -40 0 -40 0 -40 40 0 39 1 40 35 40
29 0 35 -4 36 -22z m-3079 -47 c31 -20 52 -44 68 -75 12 -26 21 -49 19 -51 -4
-3 -201 114 -216 128 -4 5 -1 12 7 17 28 18 76 10 122 -19z m2570 5 c52 -13
118 -36 146 -50 59 -30 69 -42 17 -20 -39 16 -59 18 -51 5 3 -4 -14 -4 -37 1
-75 17 -138 25 -130 17 5 -4 24 -10 43 -12 35 -4 -65 1 -130 7 -19 2 -25 1
-12 -1 12 -2 22 -8 22 -13 0 -4 -9 -6 -21 -3 -12 3 -25 0 -29 -7 -5 -8 -15
-10 -26 -5 -18 7 -18 8 1 15 11 5 14 9 7 9 -7 1 -29 -6 -50 -16 -20 -9 -40
-17 -43 -17 -4 -1 -21 -13 -40 -28 -18 -16 -39 -28 -46 -28 -16 0 -17 -12 -2
-27 18 -18 4 -40 -40 -63 -44 -22 -151 -122 -151 -140 0 -6 -5 -8 -12 -4 -6 4
-9 3 -6 -2 7 -12 -27 -75 -36 -67 -4 4 -4 -1 0 -11 4 -11 3 -17 -2 -14 -5 4
-10 -8 -11 -25 -5 -84 -15 -117 -34 -117 -17 0 -19 8 -19 63 0 117 57 275 135
377 134 175 325 235 557 176z m-2296 -8 c-15 -12 -41 -39 -57 -60 l-28 -39
-28 43 c-15 24 -34 49 -40 56 -7 7 -13 15 -13 18 0 2 44 4 98 4 l97 -1 -29
-21z m542 -28 c1 -19 -2 -41 -6 -48 -10 -15 -120 -33 -139 -23 -6 3 -28 27
-48 54 -20 26 -41 47 -48 48 -7 0 -4 3 5 7 9 4 65 5 125 2 l108 -5 3 -35z
m2362 46 c0 -2 -16 -6 -35 -8 -19 -2 -35 0 -35 4 0 4 16 8 35 8 19 0 35 -2 35
-4z m-74 -38 c-16 -49 -16 -67 -1 -62 8 4 15 4 15 1 0 -3 -6 -7 -14 -10 -20
-8 -69 40 -62 59 7 18 26 9 26 -12 0 -8 5 -14 11 -14 6 0 8 7 5 17 -4 9 -1 20
6 25 17 10 18 10 14 -4z m-2592 -40 c66 -55 91 -132 65 -206 -14 -40 -29 -32
-29 15 0 83 -60 143 -144 143 -39 0 -52 -6 -86 -37 -28 -25 -44 -33 -51 -26
-16 16 14 77 55 109 61 49 132 50 190 2z m2529 -22 c4 -11 1 -13 -10 -9 -12 5
-14 1 -9 -18 6 -19 5 -21 -4 -7 -10 17 -4 48 10 48 4 0 10 -7 13 -14z m147
-32 c0 -2 -15 -4 -32 -3 -27 0 -29 2 -13 8 18 8 45 4 45 -5z m-50 -30 c0 -2
-9 -4 -21 -4 -11 0 -18 4 -14 10 5 8 35 3 35 -6z m-2690 -59 c21 -25 8 -50
-25 -47 -37 4 -58 23 -49 45 8 21 57 23 74 2z m243 -139 c13 3 16 1 7 -2 -8
-4 -17 -11 -20 -15 -11 -16 -31 7 -23 27 6 16 8 17 11 3 2 -11 10 -15 25 -13z
m2521 -7 c24 -11 52 -29 62 -40 21 -23 21 -23 -41 0 -27 10 -80 24 -117 31
-66 12 -76 18 -60 34 12 13 110 -3 156 -25z m-1547 -25 c2 -6 -6 -12 -19 -12
-54 0 -155 -69 -211 -143 l-18 -24 6 25 c11 44 59 104 110 138 38 26 57 32 89
30 22 -2 41 -8 43 -14z m-912 -14 c3 -6 -1 -7 -9 -4 -18 7 -21 14 -7 14 6 0
13 -4 16 -10z m212 -66 c-3 -3 -12 -4 -19 -1 -8 3 -5 6 6 6 11 1 17 -2 13 -5z"/>
<path d="M5048 8223 c6 -2 18 -2 25 0 6 3 1 5 -13 5 -14 0 -19 -2 -12 -5z"/>
<path d="M4915 8170 c11 -5 27 -9 35 -9 9 0 8 4 -5 9 -11 5 -27 9 -35 9 -9 0
-8 -4 5 -9z"/>
<path d="M4475 8130 c-3 -6 1 -7 9 -4 18 7 21 14 7 14 -6 0 -13 -4 -16 -10z"/>
<path d="M4410 8099 c0 -5 5 -7 10 -4 6 3 10 8 10 11 0 2 -4 4 -10 4 -5 0 -10
-5 -10 -11z"/>
<path d="M4255 8080 c3 -5 1 -10 -4 -10 -6 0 -11 -5 -11 -11 0 -8 5 -8 15 1
17 14 20 30 4 30 -5 0 -7 -4 -4 -10z"/>
<path d="M4304 8025 c-10 -8 -14 -15 -8 -15 6 0 17 7 24 15 16 19 9 19 -16 0z"/>
<path d="M4249 7953 c-13 -16 -12 -17 4 -4 9 7 17 15 17 17 0 8 -8 3 -21 -13z"/>
<path d="M4240 7094 c0 -13 18 -39 24 -34 2 3 -2 14 -10 24 -8 11 -14 16 -14
10z"/>
<path d="M6478 7233 c7 -3 16 -2 19 1 4 3 -2 6 -13 5 -11 0 -14 -3 -6 -6z"/>
<path d="M6518 7223 c6 -2 18 -2 25 0 6 3 1 5 -13 5 -14 0 -19 -2 -12 -5z"/>
<path d="M6810 7150 c8 -5 22 -9 30 -9 10 0 8 3 -5 9 -27 12 -43 12 -25 0z"/>
<path d="M6865 7130 c3 -5 17 -10 31 -10 14 0 35 -7 48 -16 16 -10 26 -12 31
-4 3 5 0 12 -7 14 -7 2 -28 9 -47 15 -42 14 -64 14 -56 1z"/>
<path d="M5864 7089 c-19 -22 -19 -22 4 -8 12 8 22 17 22 21 0 12 -6 9 -26
-13z"/>
<path d="M7000 7091 c0 -6 10 -11 23 -11 18 0 19 -2 7 -10 -9 -6 -10 -10 -3
-10 12 0 28 19 22 24 -13 11 -49 16 -49 7z"/>
<path d="M5895 7080 c-3 -5 -1 -10 4 -10 6 0 11 5 11 10 0 6 -2 10 -4 10 -3 0
-8 -4 -11 -10z"/>
<path d="M6988 7053 c7 -3 16 -2 19 1 4 3 -2 6 -13 5 -11 0 -14 -3 -6 -6z"/>
<path d="M7125 7050 c3 -5 14 -10 23 -10 15 0 15 2 2 10 -20 13 -33 13 -25 0z"/>
<path d="M5784 7008 l-19 -23 23 19 c21 18 27 26 19 26 -2 0 -12 -10 -23 -22z"/>
<path d="M5719 6948 c-19 -24 -26 -37 -16 -29 20 16 61 71 54 71 -3 0 -20 -19
-38 -42z"/>
<path d="M7220 6975 c-7 -8 -8 -15 -2 -15 5 0 15 7 22 15 7 8 8 15 2 15 -5 0
-15 -7 -22 -15z"/>
<path d="M6187 6969 c7 -7 15 -10 18 -7 3 3 -2 9 -12 12 -14 6 -15 5 -6 -5z"/>
<path d="M6507 6952 c1 -8 3 -16 3 -18 0 -3 5 -2 10 1 6 3 10 11 10 16 0 6 -4
8 -9 5 -5 -4 -11 -3 -14 1 -2 5 -2 2 0 -5z"/>
<path d="M5050 6923 c0 -21 3 -24 9 -14 5 8 7 20 4 28 -8 21 -13 15 -13 -14z"/>
<path d="M6532 6930 c-7 -11 -9 -20 -4 -20 4 0 13 9 20 20 7 11 9 20 4 20 -4
0 -13 -9 -20 -20z"/>
<path d="M6916 6919 c-32 -25 -36 -77 -8 -102 25 -23 85 -22 105 1 25 28 22
87 -5 106 -31 22 -60 20 -92 -5z"/>
<path d="M5720 6905 c-7 -9 -11 -17 -9 -20 3 -2 10 5 17 15 14 24 10 26 -8 5z"/>
<path d="M5649 6882 c-13 -15 -31 -36 -39 -46 -14 -18 -14 -19 6 -8 18 9 71
82 60 82 -1 0 -14 -12 -27 -28z"/>
<path d="M5645 6830 c-10 -11 -13 -20 -8 -20 13 0 38 29 31 35 -3 3 -13 -4
-23 -15z"/>
<path d="M6620 6840 c-9 -6 -10 -10 -3 -10 6 0 15 5 18 10 8 12 4 12 -15 0z"/>
<path d="M5554 6783 c-15 -20 -23 -33 -16 -29 13 8 56 66 49 66 -3 0 -17 -17
-33 -37z"/>
<path d="M7190 6777 c0 -52 22 -94 82 -154 34 -35 68 -63 74 -63 7 0 14 -4 16
-8 5 -15 158 -113 207 -134 25 -11 61 -27 80 -35 36 -16 82 -13 127 9 41 20
40 34 -8 65 -24 15 -45 30 -48 33 -5 6 -44 30 -115 70 -55 31 -140 84 -145 90
-3 3 -26 16 -52 30 -26 13 -44 28 -41 34 3 5 2 7 -3 3 -11 -6 -66 18 -109 49
-49 34 -65 37 -65 11z"/>
<path d="M5743 6770 c-48 -19 -57 -88 -17 -125 14 -13 31 -22 37 -20 7 2 24 6
39 9 36 8 51 38 43 85 -9 52 -49 72 -102 51z"/>
<path d="M5464 6688 l-19 -23 23 19 c21 18 27 26 19 26 -2 0 -12 -10 -23 -22z"/>
<path d="M7490 6649 c0 -5 5 -7 10 -4 6 3 10 8 10 11 0 2 -4 4 -10 4 -5 0 -10
-5 -10 -11z"/>
<path d="M5389 6613 c-13 -16 -12 -17 4 -4 16 13 21 21 13 21 -2 0 -10 -8 -17
-17z"/>
<path d="M5060 6616 c0 -2 8 -10 18 -17 15 -13 16 -12 3 4 -13 16 -21 21 -21
13z"/>
<path d="M5016 6582 c-3 -5 1 -15 8 -21 11 -10 14 -9 12 3 -3 21 -13 29 -20
18z"/>
<path d="M7765 6570 c-3 -6 1 -7 9 -4 18 7 21 14 7 14 -6 0 -13 -4 -16 -10z"/>
<path d="M4989 6543 c-13 -16 -12 -17 4 -4 16 13 21 21 13 21 -2 0 -10 -8 -17
-17z"/>
<path d="M6175 6549 c-4 -6 -5 -12 -2 -15 2 -3 7 2 10 11 7 17 1 20 -8 4z"/>
<path d="M4902 6457 c-21 -22 -20 -37 0 -37 5 0 6 5 3 11 -4 5 1 19 11 30 25
27 12 24 -14 -4z"/>
<path d="M4968 6444 c-10 -21 -9 -31 3 -52 28 -52 99 -36 99 21 0 42 -15 57
-57 57 -26 0 -36 -6 -45 -26z"/>
<path d="M4865 6421 c3 -6 -3 -14 -12 -20 -10 -6 -13 -11 -6 -11 6 0 15 5 18
10 4 6 12 7 18 3 7 -4 6 0 -2 10 -14 18 -26 23 -16 8z"/>
<path d="M6005 6389 c-4 -6 -5 -12 -2 -15 2 -3 7 2 10 11 7 17 1 20 -8 4z"/>
<path d="M4859 6373 c-13 -16 -12 -17 4 -4 16 13 21 21 13 21 -2 0 -10 -8 -17
-17z"/>
<path d="M7788 6373 c7 -3 16 -2 19 1 4 3 -2 6 -13 5 -11 0 -14 -3 -6 -6z"/>
<path d="M6347 6338 c8 -44 13 -48 13 -10 0 17 -4 34 -10 37 -6 4 -7 -6 -3
-27z"/>
<path d="M4786 6342 c-2 -4 -1 -14 4 -22 7 -11 9 -9 7 8 -1 24 -3 26 -11 14z"/>
<path d="M7768 6343 c7 -3 16 -2 19 1 4 3 -2 6 -13 5 -11 0 -14 -3 -6 -6z"/>
<path d="M4147 6273 c-13 -12 -7 -51 8 -57 9 -3 25 4 36 15 16 16 18 23 8 35
-12 15 -41 19 -52 7z"/>
<path d="M8055 6260 c3 -5 8 -10 11 -10 2 0 4 5 4 10 0 6 -5 10 -11 10 -5 0
-7 -4 -4 -10z"/>
<path d="M7068 5863 c-2 -203 -2 -417 0 -477 l3 -109 35 34 34 33 0 416 0 417
-22 20 c-13 11 -28 23 -35 27 -9 5 -13 -80 -15 -361z"/>
<path d="M8063 6175 c0 -27 2 -38 4 -22 2 15 2 37 0 50 -2 12 -4 0 -4 -28z"/>
<path d="M6773 6095 c-24 -29 -43 -59 -43 -67 0 -9 -8 -22 -17 -29 -17 -13
-17 -13 -3 6 14 18 14 19 -2 7 -16 -13 -14 -47 2 -37 9 6 7 -42 -2 -51 -10 -9
-49 16 -42 27 3 6 11 3 19 -8 7 -10 17 -15 21 -10 4 4 2 7 -5 7 -7 0 -9 5 -5
11 3 6 0 15 -7 20 -21 12 -102 -69 -86 -86 7 -7 17 -10 23 -8 7 2 12 -2 11 -9
-1 -34 4 -58 13 -58 5 0 7 13 4 30 -4 19 -2 30 5 30 6 0 11 7 11 15 0 21 30
19 31 -2 2 -20 5 -40 9 -63 1 -9 5 -5 10 10 9 29 13 -49 15 -310 1 -163 -3
-190 -35 -218 -8 -7 3 -4 25 8 22 12 54 33 70 47 l30 26 2 356 c2 196 0 368
-5 382 -7 26 -7 26 -49 -26z m-135 -185 c-7 -11 -16 -20 -20 -20 -5 0 -3 9 4
20 7 11 16 20 20 20 5 0 3 -9 -4 -20z"/>
<path d="M5443 6087 c0 -8 6 -14 14 -14 9 0 10 4 2 14 -6 7 -12 13 -14 13 -1
0 -2 -6 -2 -13z"/>
<path d="M6495 6060 c-3 -5 -1 -10 4 -10 6 0 11 5 11 10 0 6 -2 10 -4 10 -3 0
-8 -4 -11 -10z"/>
<path d="M7260 6051 c13 -11 29 -17 34 -14 5 3 -2 12 -15 19 -36 20 -48 16
-19 -5z"/>
<path d="M7515 6050 c-3 -6 1 -7 9 -4 18 7 21 14 7 14 -6 0 -13 -4 -16 -10z"/>
<path d="M7217 6004 c-4 -4 -7 -14 -7 -23 0 -11 3 -12 11 -4 6 6 10 16 7 23
-2 6 -7 8 -11 4z"/>
<path d="M7342 6003 c20 -3 25 -8 21 -21 -6 -14 -5 -15 9 -2 19 18 5 30 -32
28 -24 -1 -24 -1 2 -5z"/>
<path d="M7400 5976 c0 -2 9 -6 20 -9 11 -3 18 -1 14 4 -5 9 -34 13 -34 5z"/>
<path d="M7480 5950 c0 -11 39 -20 45 -10 3 4 -6 10 -20 12 -14 3 -25 2 -25
-2z"/>
<path d="M6014 5915 c-23 -36 -6 -75 33 -75 35 0 48 9 58 38 16 54 -60 84 -91
37z"/>
<path d="M7540 5918 c0 -19 2 -20 10 -8 13 19 13 30 0 30 -5 0 -10 -10 -10
-22z"/>
<path d="M7602 5850 c-18 -29 -15 -38 4 -12 9 13 14 25 12 27 -2 2 -9 -5 -16
-15z"/>
<path d="M6619 5818 c4 -28 6 -29 9 -9 2 13 0 27 -5 32 -6 6 -7 -3 -4 -23z"/>
<path d="M6280 5830 c-8 -5 -12 -12 -9 -15 4 -3 12 1 19 10 14 17 11 19 -10 5z"/>
<path d="M6583 5795 c0 -27 2 -38 4 -22 2 15 2 37 0 50 -2 12 -4 0 -4 -28z"/>
<path d="M7489 5823 c-13 -16 -12 -17 4 -4 9 7 17 15 17 17 0 8 -8 3 -21 -13z"/>
<path d="M8770 5820 l-35 -7 32 -2 c17 0 35 4 38 9 3 6 5 9 3 9 -2 -1 -19 -5
-38 -9z"/>
<path d="M8836 5809 c3 -5 14 -9 25 -9 13 0 18 -4 13 -12 -4 -7 -4 -10 0 -6
10 8 36 -14 29 -24 -2 -5 1 -8 6 -8 18 0 13 15 -11 37 -24 21 -72 38 -62 22z"/>
<path d="M6488 5793 c-9 -10 -13 -27 -10 -38 3 -11 8 -76 12 -145 l6 -125 3
130 c1 72 4 145 5 163 4 37 4 38 -16 15z"/>
<path d="M7551 5759 c-24 -49 -24 -49 -11 -49 5 0 13 12 16 28 4 15 11 33 17
40 5 7 7 15 4 18 -3 3 -15 -13 -26 -37z"/>
<path d="M8783 5793 c9 -2 23 -2 30 0 6 3 -1 5 -18 5 -16 0 -22 -2 -12 -5z"/>
<path d="M8812 5779 c-19 -7 -23 -29 -6 -29 3 0 2 5 -2 11 -4 7 2 9 16 7 13
-2 25 3 27 10 5 14 -3 14 -35 1z"/>
<path d="M6434 5749 c-14 -16 -15 -21 -4 -17 8 2 20 0 26 -6 9 -8 7 -15 -8
-27 -18 -16 -18 -17 5 -15 25 1 25 1 15 74 -2 18 -12 15 -34 -9z"/>
<path d="M3926 5709 c-21 -16 -35 -29 -30 -29 5 0 27 14 48 30 22 17 35 30 30
29 -5 0 -27 -14 -48 -30z"/>
<path d="M3990 5736 c0 -2 7 -7 16 -10 8 -3 12 -2 9 4 -6 10 -25 14 -25 6z"/>
<path d="M6385 5710 c-10 -16 22 -23 47 -9 14 8 18 14 10 17 -7 2 -20 -2 -29
-10 -12 -9 -15 -9 -9 0 4 6 3 12 -3 12 -5 0 -13 -5 -16 -10z"/>
<path d="M7501 5687 c-13 -21 -12 -21 5 -5 10 10 16 20 13 22 -3 3 -11 -5 -18
-17z"/>
<path d="M6328 5657 c-37 -33 -37 -33 -15 -47 19 -11 20 -11 10 1 -10 12 -7
20 16 40 15 13 35 22 45 21 11 -3 16 0 12 7 -12 18 -29 13 -68 -22z"/>
<path d="M6350 5629 c0 -5 5 -7 10 -4 6 3 10 8 10 11 0 2 -4 4 -10 4 -5 0 -10
-5 -10 -11z"/>
<path d="M6391 5624 c0 -11 3 -14 6 -6 3 7 2 16 -1 19 -3 4 -6 -2 -5 -13z"/>
<path d="M6265 5610 c-3 -5 -1 -10 4 -10 6 0 11 5 11 10 0 6 -2 10 -4 10 -3 0
-8 -4 -11 -10z"/>
<path d="M4151 5607 c2 -1 15 -11 29 -22 l25 -20 -19 23 c-11 12 -24 22 -29
22 -6 0 -8 -1 -6 -3z"/>
<path d="M6584 5505 c0 -60 1 -84 3 -52 2 32 2 81 0 110 -2 29 -3 3 -3 -58z"/>
<path d="M7412 5560 c-7 -11 -8 -20 -3 -20 9 0 24 30 18 36 -1 2 -8 -6 -15
-16z"/>
<path d="M3968 5485 l-87 -85 47 -31 c154 -104 377 -223 517 -275 133 -50 140
-47 69 31 -114 125 -431 435 -452 443 -4 1 -47 -36 -94 -83z"/>
<path d="M4230 5546 c0 -2 8 -10 18 -17 15 -13 16 -12 3 4 -13 16 -21 21 -21
13z"/>
<path d="M4777 5535 c-4 -8 -2 -17 4 -20 5 -4 8 -1 7 7 -2 7 7 14 20 16 12 2
22 -1 22 -7 0 -6 10 -11 23 -11 22 1 22 1 -3 15 -33 19 -66 19 -73 0z"/>
<path d="M6161 5537 c-6 -8 -7 -18 -3 -22 4 -5 1 -5 -6 -1 -7 4 -42 -14 -86
-46 -41 -29 -83 -58 -93 -65 -17 -12 -17 -12 1 -6 14 5 17 3 11 -7 -5 -9 -4
-11 4 -6 6 4 9 11 6 16 -3 5 4 10 15 12 12 2 21 8 21 13 0 6 10 15 22 22 28
14 43 3 53 -40 l7 -32 9 38 c4 21 15 48 24 60 14 18 15 19 10 3 -3 -10 -2 -24
3 -30 5 -6 11 -36 14 -66 2 -30 4 -4 5 58 1 61 0 112 -2 112 -2 0 -9 -6 -15
-13z m-51 -77 c0 -5 -2 -10 -4 -10 -3 0 -8 5 -11 10 -3 6 -1 10 4 10 6 0 11
-4 11 -10z"/>
<path d="M3468 5523 c6 -2 9 -10 6 -15 -4 -7 -2 -8 5 -4 13 9 5 26 -12 25 -9
0 -8 -2 1 -6z"/>
<path d="M3503 5507 c-3 -7 -3 -9 2 -5 4 4 25 -2 46 -13 22 -11 39 -15 39 -11
0 5 -18 16 -40 25 -30 11 -42 12 -47 4z"/>
<path d="M6273 5480 c0 -25 2 -35 4 -22 2 12 2 32 0 45 -2 12 -4 2 -4 -23z"/>
<path d="M7377 5513 c-4 -3 -7 -11 -7 -17 0 -6 5 -5 12 2 6 6 9 14 7 17 -3 3
-9 2 -12 -2z"/>
<path d="M3158 5420 c-113 -86 -135 -114 -112 -145 10 -14 14 -15 14 -4 0 8 9
-5 20 -28 13 -29 25 -43 38 -43 22 0 71 42 73 62 3 30 -4 54 -20 73 -26 29
-34 55 -15 48 10 -4 12 0 8 12 -5 11 -2 16 7 15 8 -1 25 1 38 6 22 6 23 8 7
14 -16 5 -12 11 25 38 23 18 38 32 33 32 -6 0 -58 -36 -116 -80z"/>
<path d="M4930 5490 c8 -5 22 -9 30 -9 10 0 8 3 -5 9 -27 12 -43 12 -25 0z"/>
<path d="M7332 5460 c-18 -29 -15 -38 4 -12 9 13 14 25 12 27 -2 2 -9 -5 -16
-15z"/>
<path d="M3637 5459 c7 -7 15 -10 18 -7 3 3 -2 9 -12 12 -14 6 -15 5 -6 -5z"/>
<path d="M4320 5466 c0 -3 9 -10 20 -16 11 -6 20 -8 20 -6 0 3 -9 10 -20 16
-11 6 -20 8 -20 6z"/>
<path d="M2747 5443 c-4 -3 -7 -11 -7 -17 0 -6 5 -5 12 2 6 6 9 14 7 17 -3 3
-9 2 -12 -2z"/>
<path d="M5145 5440 c3 -5 0 -10 -8 -10 -23 0 -67 -54 -67 -83 0 -35 33 -67
68 -67 40 0 53 13 59 57 4 34 1 45 -18 64 -13 13 -23 30 -21 36 2 7 -2 13 -8
13 -6 0 -8 -4 -5 -10z"/>
<path d="M6060 5436 c-6 -9 -10 -21 -8 -28 3 -8 9 -4 17 10 15 28 9 39 -9 18z"/>
<path d="M3540 5437 c0 -2 15 -16 33 -33 l32 -29 -29 33 c-28 30 -36 37 -36
29z"/>
<path d="M2705 5420 c3 -5 8 -10 11 -10 2 0 4 5 4 10 0 6 -5 10 -11 10 -5 0
-7 -4 -4 -10z"/>
<path d="M3730 5423 c0 -4 9 -14 20 -21 12 -7 18 -18 14 -24 -4 -6 -3 -8 4 -4
16 10 83 -34 80 -52 -2 -11 6 -17 27 -19 l30 -2 -25 20 c-14 11 -36 27 -50 36
-14 10 -42 30 -62 46 -21 16 -38 25 -38 20z"/>
<path d="M4370 5426 c0 -3 9 -10 20 -16 11 -6 20 -8 20 -6 0 3 -9 10 -20 16
-11 6 -20 8 -20 6z"/>
<path d="M2670 5403 c8 -3 24 -10 35 -15 20 -9 20 -9 1 6 -11 9 -27 16 -35 15
-14 0 -14 -1 -1 -6z"/>
<path d="M2608 5384 c-38 -20 -36 -29 1 -9 17 8 38 12 48 9 15 -5 16 -4 3 5
-19 13 -19 13 -52 -5z"/>
<path d="M7266 5381 c-14 -15 -15 -21 -4 -27 7 -4 10 -3 5 1 -4 5 0 17 10 27
9 10 14 18 11 18 -3 0 -13 -9 -22 -19z"/>
<path d="M3178 5376 c-17 -12 -17 -14 2 -31 11 -10 20 -13 20 -7 0 6 -5 14
-10 17 -8 5 -7 11 1 21 14 17 9 17 -13 0z"/>
<path d="M5960 5376 c0 -2 8 -10 18 -17 15 -13 16 -12 3 4 -13 16 -21 21 -21
13z"/>
<path d="M2540 5345 c-10 -12 -10 -15 2 -15 8 0 15 7 15 15 0 8 -1 15 -2 15
-2 0 -8 -7 -15 -15z"/>
<path d="M6493 5320 c0 -25 2 -35 4 -22 2 12 2 32 0 45 -2 12 -4 2 -4 -23z"/>
<path d="M3544 5319 c14 -11 24 -25 21 -30 -4 -5 1 -6 9 -3 11 4 19 -3 26 -21
5 -14 15 -23 20 -20 6 4 17 1 25 -5 8 -7 15 -10 15 -7 0 7 -127 107 -136 107
-4 0 5 -9 20 -21z"/>
<path d="M3650 5336 c0 -2 8 -10 18 -17 15 -13 16 -12 3 4 -13 16 -21 21 -21
13z"/>
<path d="M5826 5325 c-10 -8 -24 -16 -30 -19 -7 -3 -6 -8 4 -16 12 -9 10 -10
-12 -6 -34 8 -35 0 -6 -25 12 -11 29 -17 39 -14 16 6 19 -3 22 -82 2 -70 3
-62 5 45 1 72 1 132 0 132 -2 0 -12 -7 -22 -15z"/>
<path d="M3008 5305 c-16 -13 -28 -29 -28 -35 0 -5 -6 -10 -13 -10 -22 0 -61
-47 -46 -55 7 -5 10 -4 6 2 -4 6 2 18 13 28 11 10 20 14 20 10 0 -5 5 -4 12 3
17 17 41 15 35 -2 -4 -10 4 -15 28 -18 18 -2 31 0 29 4 -3 4 -11 8 -19 8 -8 0
-21 10 -29 22 -14 20 -14 23 4 40 18 16 25 29 18 28 -2 0 -15 -12 -30 -25z"/>
<path d="M2505 5309 c6 -9 3 -11 -9 -6 -11 4 -15 3 -11 -4 4 -6 14 -8 22 -5 8
3 22 2 32 -3 13 -7 18 -6 18 4 0 8 -4 12 -8 9 -5 -3 -18 0 -30 7 -17 9 -20 8
-14 -2z"/>
<path d="M3870 5289 c0 -5 -7 -6 -15 -3 -13 5 -20 -13 -17 -46 0 -3 -8 -7 -20
-7 -13 -1 -18 3 -14 12 3 9 0 12 -10 8 -22 -8 -17 -20 15 -31 15 -6 37 -19 47
-30 26 -27 94 -62 122 -62 13 0 21 -4 18 -8 -3 -5 0 -9 7 -10 7 0 42 -5 80
-11 46 -6 78 -6 103 2 29 9 40 8 64 -6 15 -9 32 -17 37 -17 4 0 -14 14 -42 30
-27 17 -58 28 -67 26 -10 -2 -16 1 -15 8 1 6 -4 10 -10 9 -7 -2 -13 1 -13 6 0
12 -29 23 -42 15 -7 -4 -6 -9 2 -14 8 -5 8 -9 -3 -13 -15 -6 -17 9 -4 30 9 14
-50 46 -66 36 -6 -4 -7 -1 -2 7 6 10 4 12 -8 7 -9 -3 -16 -2 -14 2 4 15 -76
64 -105 66 -16 1 -28 -2 -28 -6z m120 -63 c0 -3 -4 -8 -10 -11 -5 -3 -10 -1
-10 4 0 6 5 11 10 11 6 0 10 -2 10 -4z m-60 -33 c-17 -12 -19 -18 -9 -29 9
-11 3 -10 -19 3 -32 19 -33 38 0 30 11 -3 21 0 25 9 3 8 9 11 15 8 5 -3 0 -13
-12 -21z m207 -59 c-3 -3 -12 -4 -19 -1 -8 3 -5 6 6 6 11 1 17 -2 13 -5z m53
-14 c0 -5 -5 -10 -11 -10 -5 0 -7 5 -4 10 3 6 8 10 11 10 2 0 4 -4 4 -10z"/>
<path d="M6772 5257 c-23 -24 -39 -46 -36 -50 4 -4 0 -7 -10 -7 -9 0 -22 -5
-29 -10 -69 -58 -81 -70 -75 -76 4 -4 14 -1 23 6 19 16 22 13 28 -31 2 -20 7
-42 11 -47 4 -6 -9 -18 -29 -28 -20 -9 -34 -19 -31 -21 6 -7 89 39 99 54 4 7
14 10 22 7 8 -3 27 2 44 12 36 21 42 49 33 157 l-7 78 -43 -44z m-77 -97 c3
-5 1 -10 -4 -10 -6 0 -11 5 -11 10 0 6 2 10 4 10 3 0 8 -4 11 -10z m43 -85
c-3 -3 -9 2 -12 12 -6 14 -5 15 5 6 7 -7 10 -15 7 -18z"/>
<path d="M2403 5243 c-32 -26 -60 -49 -63 -53 -3 -3 -22 -19 -43 -34 -21 -16
-35 -31 -33 -33 5 -5 89 57 94 69 2 4 11 4 20 1 13 -4 14 -3 3 5 -15 11 2 27
19 17 6 -4 9 -2 8 4 -2 6 13 24 32 41 55 48 27 35 -37 -17z"/>
<path d="M3020 5280 c0 -5 5 -10 11 -10 5 0 7 5 4 10 -3 6 -8 10 -11 10 -2 0
-4 -4 -4 -10z"/>
<path d="M6585 5280 c-3 -5 -1 -10 4 -10 6 0 11 5 11 10 0 6 -2 10 -4 10 -3 0
-8 -4 -11 -10z"/>
<path d="M5714 5265 c-10 -8 -14 -14 -9 -14 6 0 19 6 29 14 11 8 15 15 10 15
-6 0 -19 -7 -30 -15z"/>
<path d="M5962 5250 c0 -19 2 -27 5 -17 2 9 2 25 0 35 -3 9 -5 1 -5 -18z"/>
<path d="M2460 5251 c0 -6 4 -13 10 -16 6 -3 7 1 4 9 -7 18 -14 21 -14 7z"/>
<path d="M5660 5240 c-8 -5 -10 -10 -5 -10 6 0 17 5 25 10 8 5 11 10 5 10 -5
0 -17 -5 -25 -10z"/>
<path d="M2425 5230 c-3 -6 1 -7 9 -4 18 7 21 14 7 14 -6 0 -13 -4 -16 -10z"/>
<path d="M2945 5219 c-4 -6 -5 -12 -2 -15 2 -3 7 2 10 11 7 17 1 20 -8 4z"/>
<path d="M3603 5215 c0 -8 4 -12 9 -9 5 3 6 10 3 15 -9 13 -12 11 -12 -6z"/>
<path d="M3633 5215 c0 -7 6 -11 14 -8 7 3 13 6 13 8 0 2 -6 5 -13 8 -8 3 -14
-1 -14 -8z"/>
<path d="M3687 5209 c12 -12 25 -20 28 -17 3 3 -7 13 -22 23 l-28 17 22 -23z"/>
<path d="M5665 5220 c-16 -7 -17 -9 -3 -9 9 -1 20 4 23 9 7 11 7 11 -20 0z"/>
<path d="M2440 5210 c-8 -5 -10 -10 -5 -10 6 0 17 5 25 10 8 5 11 10 5 10 -5
0 -17 -5 -25 -10z"/>
<path d="M2845 5158 l-40 -41 42 34 c24 19 43 37 43 42 0 12 -4 9 -45 -35z"/>
<path d="M3048 5183 c7 -3 16 -2 19 1 4 3 -2 6 -13 5 -11 0 -14 -3 -6 -6z"/>
<path d="M3560 5183 c14 -3 29 -9 35 -14 5 -5 13 -9 19 -9 5 0 1 7 -10 15 -10
8 -30 14 -44 13 l-25 -1 25 -4z"/>
<path d="M5510 5170 c-8 -5 -11 -10 -5 -10 5 0 4 -5 -3 -12 -9 -9 -8 -15 3
-28 9 -10 15 -45 18 -105 2 -78 3 -73 5 38 1 70 1 127 0 127 -2 0 -10 -5 -18
-10z"/>
<path d="M6487 5160 c-3 -11 -1 -20 4 -20 5 0 9 9 9 20 0 11 -2 20 -4 20 -2 0
-6 -9 -9 -20z"/>
<path d="M3762 5154 c10 -10 20 -16 22 -13 3 3 -5 11 -17 18 -21 13 -21 12 -5
-5z"/>
<path d="M5455 5152 c-6 -5 -38 -17 -72 -27 -62 -18 -75 -28 -50 -39 6 -3 -4
-4 -23 -1 -31 5 -32 4 -11 -5 31 -13 62 -4 54 16 -3 8 -2 14 3 13 5 -1 22 3
39 10 16 7 40 10 53 8 12 -2 20 -2 18 1 -3 3 2 11 12 18 14 11 15 13 2 14 -9
0 -20 -4 -25 -8z"/>
<path d="M2856 5141 c-4 -5 -2 -12 3 -15 5 -4 12 -2 15 3 4 5 2 12 -3 15 -5 4
-12 2 -15 -3z"/>
<path d="M2235 5109 c-4 -6 -5 -12 -2 -15 2 -3 7 2 10 11 7 17 1 20 -8 4z"/>
<path d="M2780 5095 c-8 -9 -8 -15 -2 -15 12 0 26 19 19 26 -2 2 -10 -2 -17
-11z"/>
<path d="M6373 5080 c-46 -27 -41 -34 5 -8 46 27 48 28 36 28 -5 0 -24 -9 -41
-20z"/>
<path d="M6581 5084 c0 -11 3 -14 6 -6 3 7 2 16 -1 19 -3 4 -6 -2 -5 -13z"/>
<path d="M6628 5065 c-6 -30 -2 -32 12 -6 6 11 6 22 1 25 -5 3 -11 -5 -13 -19z"/>
<path d="M5165 5060 c-16 -4 -47 -11 -67 -14 -40 -7 -53 -26 -18 -26 11 0 20
5 20 10 0 15 16 12 34 -5 13 -14 16 -13 25 2 12 22 21 14 31 -29 7 -30 8 -28
9 20 1 28 0 52 -1 51 -2 0 -16 -4 -33 -9z"/>
<path d="M5280 4960 c0 -49 4 -90 9 -90 4 0 6 11 3 25 -2 13 -1 33 3 42 13 32
11 113 -2 113 -10 0 -13 -25 -13 -90z"/>
<path d="M6482 5043 c-6 -3 -10 -9 -7 -14 4 -5 -1 -6 -9 -3 -9 3 -16 1 -16 -5
0 -6 10 -11 21 -11 18 0 21 -5 17 -30 -3 -18 -1 -27 4 -22 14 14 5 90 -10 85z"/>
<path d="M6580 5034 c0 -8 5 -12 10 -9 6 3 10 10 10 16 0 5 -4 9 -10 9 -5 0
-10 -7 -10 -16z"/>
<path d="M4996 5021 c-19 -7 -19 -8 2 -13 12 -4 20 -2 17 2 -3 5 3 11 12 13
12 3 13 5 3 5 -8 0 -24 -3 -34 -7z"/>
<path d="M6260 5019 c0 -5 5 -7 10 -4 6 3 10 8 10 11 0 2 -4 4 -10 4 -5 0 -10
-5 -10 -11z"/>
<path d="M4030 5011 c-33 -6 -31 -7 25 -13 33 -4 89 -5 125 -3 39 3 57 1 45
-4 -16 -6 -10 -10 33 -21 29 -6 64 -10 77 -7 20 3 23 2 14 -9 -8 -10 -5 -15
15 -20 27 -7 50 2 41 17 -4 5 6 9 20 9 14 0 24 -4 21 -8 -3 -5 2 -9 10 -9 9 0
13 6 9 16 -3 11 -1 11 9 -3 8 -10 21 -16 29 -13 23 9 120 -14 135 -31 7 -9 11
-11 7 -4 -4 7 0 12 9 12 20 0 30 -17 14 -23 -7 -3 3 -4 22 -1 29 4 31 3 15 -6
-16 -9 -14 -9 14 -5 26 4 32 2 28 -10 -4 -9 -1 -12 9 -8 28 10 13 21 -78 53
-51 18 -106 40 -123 48 -18 9 -92 20 -185 28 -261 21 -304 23 -340 15z m93 -8
c-7 -2 -21 -2 -30 0 -10 3 -4 5 12 5 17 0 24 -2 18 -5z m150 -20 c-7 -2 -19
-2 -25 0 -7 3 -2 5 12 5 14 0 19 -2 13 -5z m44 -9 c-3 -3 -12 -4 -19 -1 -8 3
-5 6 6 6 11 1 17 -2 13 -5z m200 -10 c-3 -3 -12 -4 -19 -1 -8 3 -5 6 6 6 11 1
17 -2 13 -5z"/>
<path d="M6368 4978 c-32 -16 -58 -35 -58 -41 0 -8 3 -9 8 -1 4 5 23 17 42 24
35 15 40 16 61 19 5 0 8 5 5 10 -4 5 0 12 6 14 7 3 9 5 3 5 -5 0 -36 -13 -67
-30z"/>
<path d="M4810 4989 c-12 -8 -10 -9 8 -4 16 5 32 -2 59 -24 21 -17 44 -31 53
-31 8 0 -9 16 -37 35 -57 38 -61 40 -83 24z"/>
<path d="M4710 4986 c0 -2 9 -6 20 -9 11 -3 18 -1 14 4 -5 9 -34 13 -34 5z"/>
<path d="M4070 4970 c-8 -5 -10 -10 -5 -10 6 0 17 5 25 10 8 5 11 10 5 10 -5
0 -17 -5 -25 -10z"/>
<path d="M4188 4963 c7 -3 16 -2 19 1 4 3 -2 6 -13 5 -11 0 -14 -3 -6 -6z"/>
<path d="M5610 4950 c0 -5 5 -10 10 -10 6 0 10 5 10 10 0 6 -4 10 -10 10 -5 0
-10 -4 -10 -10z"/>
<path d="M6110 4950 c-8 -5 -10 -10 -5 -10 6 0 17 5 25 10 8 5 11 10 5 10 -5
0 -17 -5 -25 -10z"/>
<path d="M2210 4940 c0 -5 5 -10 10 -10 6 0 10 5 10 10 0 6 -4 10 -10 10 -5 0
-10 -4 -10 -10z"/>
<path d="M4060 4946 c0 -2 7 -7 16 -10 8 -3 12 -2 9 4 -6 10 -25 14 -25 6z"/>
<path d="M4110 4940 c0 -5 4 -10 9 -10 6 0 13 5 16 10 3 6 -1 10 -9 10 -9 0
-16 -4 -16 -10z"/>
<path d="M4168 4943 c7 -3 16 -2 19 1 4 3 -2 6 -13 5 -11 0 -14 -3 -6 -6z"/>
<path d="M4153 4923 c9 -2 23 -2 30 0 6 3 -1 5 -18 5 -16 0 -22 -2 -12 -5z"/>
<path d="M4560 4920 c0 -5 7 -10 15 -10 8 0 15 5 15 10 0 6 -7 10 -15 10 -8 0
-15 -4 -15 -10z"/>
<path d="M2534 4905 c-16 -12 -17 -14 -3 -15 9 0 19 7 23 15 7 19 5 19 -20 0z"/>
<path d="M4218 4913 c7 -3 16 -2 19 1 4 3 -2 6 -13 5 -11 0 -14 -3 -6 -6z"/>
<path d="M5842 4890 c0 -19 2 -27 5 -17 2 9 2 25 0 35 -3 9 -5 1 -5 -18z"/>
<path d="M4503 4903 c9 -2 23 -2 30 0 6 3 -1 5 -18 5 -16 0 -22 -2 -12 -5z"/>
<path d="M5968 4903 c7 -3 16 -2 19 1 4 3 -2 6 -13 5 -11 0 -14 -3 -6 -6z"/>
<path d="M6388 4903 c6 -2 18 -2 25 0 6 3 1 5 -13 5 -14 0 -19 -2 -12 -5z"/>
<path d="M6160 4880 c-13 -8 -12 -10 3 -10 9 0 17 5 17 10 0 12 -1 12 -20 0z"/>
<path d="M6586 4881 c-3 -4 -2 -55 2 -112 l7 -104 6 70 c4 39 9 88 12 110 5
31 4 33 -2 10 -6 -25 -9 -27 -15 -12 -5 9 -6 24 -2 32 6 16 1 21 -8 6z"/>
<path d="M5353 4863 c9 -2 25 -2 35 0 9 3 1 5 -18 5 -19 0 -27 -2 -17 -5z"/>
<path d="M5673 4855 c0 -8 4 -12 9 -9 5 3 6 10 3 15 -9 13 -12 11 -12 -6z"/>
<path d="M6100 4854 c-24 -9 -29 -13 -14 -13 11 -1 29 6 40 14 22 17 20 17
-26 -1z"/>
<path d="M2498 4853 c12 -2 32 -2 45 0 12 2 2 4 -23 4 -25 0 -35 -2 -22 -4z"/>
<path d="M5345 4840 l-20 -9 20 0 c11 0 27 4 35 9 13 9 13 10 0 9 -8 0 -24 -4
-35 -9z"/>
<path d="M5443 4833 c9 -2 23 -2 30 0 6 3 -1 5 -18 5 -16 0 -22 -2 -12 -5z"/>
<path d="M6631 4823 c-1 -12 -6 -23 -13 -25 -7 -3 -9 -14 -4 -32 7 -29 7 -29
22 -8 11 16 12 29 5 54 -7 24 -9 27 -10 11z"/>
<path d="M5960 4800 c0 -5 5 -10 10 -10 6 0 10 5 10 10 0 6 -4 10 -10 10 -5 0
-10 -4 -10 -10z"/>
<path d="M6343 4793 c-23 -11 -33 -24 -33 -39 0 -12 -5 -24 -12 -26 -8 -3 -6
-7 5 -11 9 -3 16 -3 16 1 -6 43 54 79 78 46 12 -16 14 -16 34 2 l20 18 -33 12
c-41 16 -37 16 -75 -3z"/>
<path d="M6269 4761 c7 -5 9 -11 4 -14 -5 -3 -10 -24 -11 -47 -2 -27 1 -39 8
-35 5 3 10 21 10 40 0 19 5 37 11 41 12 7 -6 24 -26 24 -5 0 -4 -4 4 -9z"/>
<path d="M6357 4754 c-4 -4 -4 -10 -1 -15 6 -10 34 0 34 12 0 10 -24 12 -33 3z"/>
<path d="M6155 4740 c3 -5 10 -10 16 -10 5 0 9 5 9 10 0 6 -7 10 -16 10 -8 0
-12 -4 -9 -10z"/>
<path d="M6376 4719 c-3 -8 -6 -29 -9 -47 -3 -27 0 -33 19 -38 13 -3 28 -3 33
1 13 8 15 85 2 85 -5 0 -16 3 -25 6 -9 3 -18 0 -20 -7z"/>
<path d="M7623 4680 c0 -25 2 -35 4 -22 2 12 2 32 0 45 -2 12 -4 2 -4 -23z"/>
<path d="M6593 4595 c0 -27 2 -38 4 -22 2 15 2 37 0 50 -2 12 -4 0 -4 -28z"/>
<path d="M7490 4270 c8 -5 20 -10 25 -10 6 0 3 5 -5 10 -8 5 -19 10 -25 10 -5
0 -3 -5 5 -10z"/>
<path d="M1138 5233 c6 -2 18 -2 25 0 6 3 1 5 -13 5 -14 0 -19 -2 -12 -5z"/>
<path d="M8700 5076 c6 -8 19 -12 27 -9 14 6 14 8 -3 14 -30 12 -37 10 -24 -5z"/>
<path d="M3488 5073 c12 -2 30 -2 40 0 9 3 -1 5 -23 4 -22 0 -30 -2 -17 -4z"/>
<path d="M3508 5053 c6 -2 18 -2 25 0 6 3 1 5 -13 5 -14 0 -19 -2 -12 -5z"/>
<path d="M3548 4953 c6 -2 18 -2 25 0 6 3 1 5 -13 5 -14 0 -19 -2 -12 -5z"/>
<path d="M2044 4765 c11 -8 24 -15 30 -15 5 0 1 7 -10 15 -10 8 -23 14 -29 14
-5 0 -1 -6 9 -14z"/>
<path d="M4707 4639 c6 -6 9 -18 6 -25 -3 -8 1 -14 11 -14 13 0 14 4 4 25 -6
14 -16 25 -22 25 -6 0 -6 -4 1 -11z"/>
<path d="M5418 4533 c12 -2 30 -2 40 0 9 3 -1 5 -23 4 -22 0 -30 -2 -17 -4z"/>
<path d="M5548 4523 c7 -3 16 -2 19 1 4 3 -2 6 -13 5 -11 0 -14 -3 -6 -6z"/>
<path d="M5718 4493 c7 -3 16 -2 19 1 4 3 -2 6 -13 5 -11 0 -14 -3 -6 -6z"/>
<path d="M5940 4436 c0 -6 103 -36 108 -32 3 4 -86 36 -100 36 -4 0 -8 -2 -8
-4z"/>
<path d="M6001 4354 c-44 -31 -9 -103 43 -90 29 7 45 49 29 74 -15 25 -48 32
-72 16z"/>
<path d="M6410 4284 c25 -7 50 -13 55 -13 18 1 -59 27 -80 28 -11 0 0 -7 25
-15z"/>
<path d="M6490 4260 c8 -5 24 -10 34 -10 26 0 18 6 -19 14 -22 5 -26 4 -15 -4z"/>
<path d="M6496 4164 c-9 -9 -15 -29 -13 -47 2 -28 6 -32 34 -34 55 -5 83 46
45 80 -23 21 -46 22 -66 1z"/>
<path d="M3438 4693 c7 -3 16 -2 19 1 4 3 -2 6 -13 5 -11 0 -14 -3 -6 -6z"/>
<path d="M3575 4420 c-16 -4 -23 -8 -14 -9 9 0 20 -13 24 -28 6 -25 8 -26 14
-9 6 16 8 17 13 4 4 -9 1 -21 -5 -27 -9 -9 -8 -11 6 -6 10 4 17 2 17 -4 0 -6
8 -11 18 -11 15 1 15 2 1 13 -9 7 -21 29 -28 50 -7 20 -13 36 -14 36 -1 -1
-15 -5 -32 -9z"/>
<path d="M3601 4306 c-9 -11 -6 -12 14 -8 14 2 22 8 19 13 -8 13 -20 11 -33
-5z"/>
<path d="M4820 4530 c0 -5 5 -10 11 -10 5 0 7 5 4 10 -3 6 -8 10 -11 10 -2 0
-4 -4 -4 -10z"/>
<path d="M5014 3985 c11 -8 25 -15 30 -15 6 0 2 7 -8 15 -11 8 -25 15 -30 15
-6 0 -2 -7 8 -15z"/>
<path d="M8450 4335 c-14 -8 -20 -14 -14 -15 5 0 19 7 30 15 24 18 16 19 -16
0z"/>
<path d="M8520 4340 c-18 -12 -2 -12 25 0 13 6 15 9 5 9 -8 0 -22 -4 -30 -9z"/>
<path d="M8619 4343 c19 -4 21 -7 10 -15 -10 -7 -11 -9 -1 -6 24 6 18 23 -8
25 l-25 1 24 -5z"/>
<path d="M8673 4303 c9 -2 25 -2 35 0 9 3 1 5 -18 5 -19 0 -27 -2 -17 -5z"/>
<path d="M8385 4251 c-3 -5 -2 -12 3 -15 5 -3 9 1 9 9 0 17 -3 19 -12 6z"/>
<path d="M1873 3790 c-17 -6 -41 -22 -52 -36 -19 -24 -21 -40 -21 -185 0 -169
7 -200 47 -218 16 -8 180 -11 529 -11 l506 0 28 28 c36 36 44 86 38 243 -4
117 -5 120 -34 149 l-29 30 -490 5 c-306 3 -502 1 -522 -5z m340 -72 c7 -21
-8 -50 -48 -92 -21 -22 -69 -76 -107 -120 -89 -102 -94 -106 -140 -106 -62 0
-71 24 -66 181 3 100 7 132 18 139 24 15 337 13 343 -2z m557 -8 c0 -19 -127
-170 -221 -262 -43 -43 -52 -48 -93 -48 l-46 0 0 165 0 165 180 0 c172 0 180
-1 180 -20z"/>
<path d="M3084 3790 c-64 -20 -69 -34 -72 -221 l-3 -169 30 -30 29 -30 232 0
232 0 29 29 29 29 0 166 0 166 -29 32 -29 33 -209 2 c-114 1 -222 -2 -239 -7z
m343 -76 c9 -24 -6 -47 -97 -142 -47 -48 -102 -107 -123 -130 -33 -36 -45 -42
-78 -42 -63 0 -71 23 -67 180 2 103 6 133 18 140 8 5 88 10 178 10 138 0 164
-2 169 -16z"/>
<path d="M3885 3240 c-33 -6 -35 -7 -10 -8 17 0 53 3 80 8 47 7 48 7 10 7 -22
0 -58 -3 -80 -7z"/>
<path d="M7986 3615 c-11 -8 -17 -17 -14 -20 2 -3 13 4 23 15 21 23 18 25 -9
5z"/>
<path d="M7325 3460 c-13 -6 -15 -9 -5 -9 8 0 22 4 30 9 18 12 2 12 -25 0z"/>
<path d="M6430 3025 c0 -8 2 -15 4 -15 2 0 6 7 10 15 3 8 1 15 -4 15 -6 0 -10
-7 -10 -15z"/>
<path d="M6392 2985 c0 -16 2 -22 5 -12 2 9 2 23 0 30 -3 6 -5 -1 -5 -18z"/>
<path d="M8295 2970 c-16 -7 -17 -9 -3 -9 9 -1 20 4 23 9 7 11 7 11 -20 0z"/>
<path d="M8358 2953 c7 -3 16 -2 19 1 4 3 -2 6 -13 5 -11 0 -14 -3 -6 -6z"/>
<path d="M8549 2945 c5 -5 10 -17 13 -25 3 -10 6 -6 10 10 3 20 0 26 -13 26
-11 0 -15 -4 -10 -11z"/>
<path d="M8591 2946 c-7 -8 -8 -17 -3 -20 6 -3 13 1 16 10 9 23 2 28 -13 10z"/>
<path d="M8124 2917 c-18 -16 -24 -26 -16 -31 7 -4 12 -1 12 7 0 8 10 22 23
30 12 9 19 16 15 16 -4 1 -19 -10 -34 -22z"/>
<path d="M8135 2901 c-3 -5 -2 -12 3 -15 5 -3 9 1 9 9 0 17 -3 19 -12 6z"/>
<path d="M8190 2896 c0 -9 5 -16 10 -16 6 0 10 4 10 9 0 6 -4 13 -10 16 -5 3
-10 -1 -10 -9z"/>
<path d="M8522 2858 c-7 -7 -12 -21 -12 -32 0 -17 3 -16 15 8 17 32 15 42 -3
24z"/>
<path d="M8046 2844 c-9 -8 -16 -19 -16 -24 0 -10 31 -22 38 -15 3 3 0 5 -6 5
-18 0 -14 28 6 39 9 6 12 11 5 11 -6 0 -19 -7 -27 -16z"/>
<path d="M3246 2874 c-8 -21 -8 -24 3 -24 5 0 11 9 14 20 6 24 -8 27 -17 4z"/>
<path d="M3110 2870 c-10 -6 -11 -10 -2 -10 6 0 12 -5 12 -11 0 -5 -4 -8 -8
-5 -4 2 -14 1 -21 -3 -10 -7 -10 -9 2 -14 21 -8 39 8 35 31 -2 16 -7 19 -18
12z"/>
<path d="M3192 2250 c0 -14 2 -19 5 -12 2 6 2 18 0 25 -3 6 -5 1 -5 -13z"/>
<path d="M2593 2083 c-19 -7 -16 -72 3 -80 28 -10 69 10 72 37 6 36 -35 60
-75 43z"/>
<path d="M2801 2076 c-7 -8 -11 -27 -9 -43 2 -23 9 -29 33 -31 46 -6 71 40 39
72 -19 20 -48 20 -63 2z"/>
<path d="M3140 1954 c0 -8 5 -12 10 -9 6 4 8 11 5 16 -9 14 -15 11 -15 -7z"/>
<path d="M6975 2580 c-3 -5 -1 -10 4 -10 6 0 11 5 11 10 0 6 -2 10 -4 10 -3 0
-8 -4 -11 -10z"/>
<path d="M6780 2559 c-13 -9 -13 -10 2 -5 10 3 18 -1 21 -12 3 -12 5 -11 6 6
1 24 -6 27 -29 11z"/>
<path d="M6768 2533 c7 -3 16 -2 19 1 4 3 -2 6 -13 5 -11 0 -14 -3 -6 -6z"/>
<path d="M6685 2510 c-3 -5 -1 -10 4 -10 6 0 11 5 11 10 0 6 -2 10 -4 10 -3 0
-8 -4 -11 -10z"/>
<path d="M7780 2161 c0 -10 -7 -21 -15 -25 -8 -3 -15 -10 -15 -16 0 -5 7 -10
15 -10 8 0 15 7 15 15 0 8 5 15 10 15 6 0 10 9 10 20 0 11 -4 20 -10 20 -5 0
-10 -9 -10 -19z"/>
<path d="M7043 2333 c9 -2 23 -2 30 0 6 3 -1 5 -18 5 -16 0 -22 -2 -12 -5z"/>
<path d="M6614 2254 c-18 -14 -18 -15 4 -4 12 6 22 13 22 15 0 8 -5 6 -26 -11z"/>
<path d="M6924 2243 c-48 -9 -31 -95 19 -101 38 -5 57 14 57 54 0 28 -5 36
-26 44 -14 6 -26 9 -27 9 -1 -1 -12 -4 -23 -6z"/>
<path d="M6278 2163 c7 -3 16 -2 19 1 4 3 -2 6 -13 5 -11 0 -14 -3 -6 -6z"/>
<path d="M7480 8794 c-11 -12 -10 -18 3 -31 18 -18 44 -12 54 13 11 30 -35 45
-57 18z"/>
<path d="M7370 8765 c-16 -19 -6 -45 18 -45 28 0 43 20 31 42 -12 22 -32 23
-49 3z"/>
<path d="M7250 8724 c-11 -12 -10 -18 3 -31 21 -21 47 -9 47 22 0 29 -29 35
-50 9z"/>
<path d="M7131 8687 c-17 -21 -3 -49 23 -45 15 2 21 10 21 28 0 28 -26 38 -44
17z"/>
<path d="M7037 8663 c-12 -12 -7 -53 6 -53 24 0 51 26 44 44 -6 16 -38 22 -50
9z"/>
<path d="M6944 8625 c-7 -17 2 -45 14 -45 20 0 45 28 39 44 -8 20 -46 21 -53
1z"/>
<path d="M6850 8598 c0 -7 4 -19 9 -27 12 -19 51 -4 51 20 0 14 -7 19 -30 19
-17 0 -30 -5 -30 -12z"/>
<path d="M6782 8579 c-20 -7 -21 -12 -12 -30 7 -12 17 -18 27 -15 8 3 17 6 19
6 7 0 4 39 -3 43 -5 3 -18 1 -31 -4z"/>
<path d="M6684 8545 c-10 -25 3 -44 26 -38 25 7 32 17 24 37 -8 20 -43 21 -50
1z"/>
<path d="M6369 8461 l-31 -30 37 -7 c21 -4 40 -3 44 2 3 5 15 9 26 9 30 0 30
30 0 43 -36 17 -41 16 -76 -17z"/>
</g>
</svg>
